<?xml version="1.0" encoding="utf-8"?>
<!-- Generator: Adobe Illustrator 15.1.0, SVG Export Plug-In  -->
<!DOCTYPE svg PUBLIC "-//W3C//DTD SVG 1.1//EN" "http://www.w3.org/Graphics/SVG/1.1/DTD/svg11.dtd" [
	<!ENTITY ns_flows "http://ns.adobe.com/Flows/1.0/">
]>
<svg version="1.1"
	 xmlns="http://www.w3.org/2000/svg" xmlns:xlink="http://www.w3.org/1999/xlink" xmlns:a="http://ns.adobe.com/AdobeSVGViewerExtensions/3.0/"
	 x="0px" y="0px" width="32px" height="32px" viewBox="-4 0 32 32" overflow="visible" enable-background="new -4 0 32 32"
	 xml:space="preserve">
<defs>
</defs>
<path id="iphone_1_" d="M22,0H2C0.895,0,0,0.895,0,2v28c0,1.105,0.895,2,2,2h20c1.105,0,2-0.895,2-2V2C24,0.895,23.105,0,22,0z
	 M12,31c-1.105,0-2-0.895-2-2s0.895-2,2-2s2,0.895,2,2S13.105,31,12,31z M20,26H4V4h16V26z"/>
</svg>
