<?xml version="1.0" encoding="utf-8"?>
<!-- Generator: Adobe Illustrator 15.1.0, SVG Export Plug-In  -->
<!DOCTYPE svg PUBLIC "-//W3C//DTD SVG 1.1//EN" "http://www.w3.org/Graphics/SVG/1.1/DTD/svg11.dtd" [
	<!ENTITY ns_flows "http://ns.adobe.com/Flows/1.0/">
]>
<svg version="1.1"
	 xmlns="http://www.w3.org/2000/svg" xmlns:xlink="http://www.w3.org/1999/xlink" xmlns:a="http://ns.adobe.com/AdobeSVGViewerExtensions/3.0/"
	 x="0px" y="0px" width="32px" height="32px" viewBox="-8 0 32 32" overflow="visible" enable-background="new -8 0 32 32"
	 xml:space="preserve">
<defs>
</defs>
<path id="arrow-top_1_" d="M7.293,0.293l-7,7C0.102,7.484,0,7.74,0,8c0,0.129,0.024,0.26,0.076,0.383C0.23,8.756,0.596,9,1,9h5v22
	c0,0.553,0.447,1,1,1h2c0.553,0,1-0.447,1-1V9h5c0.404,0,0.77-0.244,0.924-0.617C15.977,8.26,16,8.129,16,8
	c0-0.26-0.102-0.516-0.293-0.707l-7-7C8.316-0.098,7.684-0.098,7.293,0.293z"/>
</svg>
