<?xml version="1.0" encoding="utf-8"?>
<!-- Generator: Adobe Illustrator 15.1.0, SVG Export Plug-In  -->
<!DOCTYPE svg PUBLIC "-//W3C//DTD SVG 1.1//EN" "http://www.w3.org/Graphics/SVG/1.1/DTD/svg11.dtd" [
	<!ENTITY ns_flows "http://ns.adobe.com/Flows/1.0/">
]>
<svg version="1.1"
	 xmlns="http://www.w3.org/2000/svg" xmlns:xlink="http://www.w3.org/1999/xlink" xmlns:a="http://ns.adobe.com/AdobeSVGViewerExtensions/3.0/"
	 x="0px" y="0px" width="32px" height="32px" viewBox="0 0 32 32" overflow="visible" enable-background="new 0 0 32 32"
	 xml:space="preserve">
<defs>
</defs>
<path id="arrow-down2_1_" fill-rule="evenodd" clip-rule="evenodd" d="M0,17c0-0.129,0.023-0.258,0.074-0.383
	C0.23,16.246,0.594,16,1,16h9V1c0-0.551,0.445-1,1-1h10c0.551,0,1,0.449,1,1v15h9c0.402,0,0.77,0.246,0.922,0.617
	C31.973,16.742,32,16.871,32,17c0,0.262-0.102,0.516-0.293,0.707l-15,14C16.512,31.902,16.254,32,16,32
	c-0.258,0-0.512-0.098-0.707-0.293l-15-14C0.102,17.516,0,17.262,0,17z"/>
</svg>
