<?xml version="1.0" encoding="utf-8"?>
<!-- Generator: Adobe Illustrator 15.1.0, SVG Export Plug-In  -->
<!DOCTYPE svg PUBLIC "-//W3C//DTD SVG 1.1//EN" "http://www.w3.org/Graphics/SVG/1.1/DTD/svg11.dtd" [
	<!ENTITY ns_flows "http://ns.adobe.com/Flows/1.0/">
]>
<svg version="1.1"
	 xmlns="http://www.w3.org/2000/svg" xmlns:xlink="http://www.w3.org/1999/xlink" xmlns:a="http://ns.adobe.com/AdobeSVGViewerExtensions/3.0/"
	 x="0px" y="0px" width="32px" height="32px" viewBox="0 0 32 32" overflow="visible" enable-background="new 0 0 32 32"
	 xml:space="preserve">
<defs>
</defs>
<path id="box2_1_" d="M31.447,7.662l-15-7.556C16.307,0.035,16.153,0,16,0s-0.307,0.035-0.447,0.106l-15,7.556
	C0.214,7.833,0,8.182,0,8.563v14.873c0,0.382,0.214,0.73,0.553,0.901l15,7.556C15.693,31.965,15.847,32,16,32
	s0.307-0.035,0.447-0.106l15-7.556C31.786,24.167,32,23.818,32,23.437V8.563C32,8.182,31.786,7.833,31.447,7.662z M16,15.948L4,10
	l12-6l12,6L16,15.948z"/>
</svg>
