<?xml version="1.0" encoding="utf-8"?>
<!-- Generator: Adobe Illustrator 15.1.0, SVG Export Plug-In  -->
<!DOCTYPE svg PUBLIC "-//W3C//DTD SVG 1.1//EN" "http://www.w3.org/Graphics/SVG/1.1/DTD/svg11.dtd" [
	<!ENTITY ns_flows "http://ns.adobe.com/Flows/1.0/">
]>
<svg version="1.1"
	 xmlns="http://www.w3.org/2000/svg" xmlns:xlink="http://www.w3.org/1999/xlink" xmlns:a="http://ns.adobe.com/AdobeSVGViewerExtensions/3.0/"
	 x="0px" y="0px" width="32px" height="32px" viewBox="0 0 32 32" overflow="visible" enable-background="new 0 0 32 32"
	 xml:space="preserve">
<defs>
</defs>
<path id="download2_1_" d="M16,0C7.164,0,0,7.163,0,16s7.164,16,16,16s16-7.163,16-16S24.836,0,16,0z M22.684,17.761l-5.922,5.924
	C16.551,23.896,16.275,24,16,24s-0.551-0.104-0.762-0.315l-5.922-5.924c-0.309-0.308-0.402-0.77-0.234-1.173
	C9.248,16.186,9.564,16,10,16h3V8.5C13,8.224,13.224,8,13.5,8h5C18.776,8,19,8.224,19,8.5V16h3c0.436,0,0.752,0.186,0.918,0.588
	C23.086,16.991,22.992,17.453,22.684,17.761z"/>
</svg>
