<?xml version="1.0" encoding="utf-8"?>
<!-- Generator: Adobe Illustrator 15.1.0, SVG Export Plug-In  -->
<!DOCTYPE svg PUBLIC "-//W3C//DTD SVG 1.1//EN" "http://www.w3.org/Graphics/SVG/1.1/DTD/svg11.dtd" [
	<!ENTITY ns_flows "http://ns.adobe.com/Flows/1.0/">
]>
<svg version="1.1"
	 xmlns="http://www.w3.org/2000/svg" xmlns:xlink="http://www.w3.org/1999/xlink" xmlns:a="http://ns.adobe.com/AdobeSVGViewerExtensions/3.0/"
	 x="0px" y="0px" width="32px" height="32px" viewBox="0 -2 32 32" overflow="visible" enable-background="new 0 -2 32 32"
	 xml:space="preserve">
<defs>
</defs>
<path d="M31,2H11c-0.553,0-1,0.447-1,1v2c0,0.553,0.447,1,1,1h20c0.553,0,1-0.447,1-1V3C32,2.447,31.553,2,31,2z"/>
<path d="M31,12H11c-0.553,0-1,0.447-1,1v2c0,0.553,0.447,1,1,1h20c0.553,0,1-0.447,1-1v-2C32,12.447,31.553,12,31,12z"/>
<path d="M31,22H11c-0.553,0-1,0.447-1,1v2c0,0.553,0.447,1,1,1h20c0.553,0,1-0.447,1-1v-2C32,22.447,31.553,22,31,22z"/>
<circle cx="4" cy="4" r="4"/>
<circle cx="4" cy="14" r="4"/>
<circle cx="4" cy="24" r="4"/>
</svg>
