<?xml version="1.0" encoding="utf-8"?>
<!-- Generator: Adobe Illustrator 15.1.0, SVG Export Plug-In  -->
<!DOCTYPE svg PUBLIC "-//W3C//DTD SVG 1.1//EN" "http://www.w3.org/Graphics/SVG/1.1/DTD/svg11.dtd" [
	<!ENTITY ns_flows "http://ns.adobe.com/Flows/1.0/">
]>
<svg version="1.1"
	 xmlns="http://www.w3.org/2000/svg" xmlns:xlink="http://www.w3.org/1999/xlink" xmlns:a="http://ns.adobe.com/AdobeSVGViewerExtensions/3.0/"
	 x="0px" y="0px" width="32px" height="32px" viewBox="0 -4 32 32" overflow="visible" enable-background="new 0 -4 32 32"
	 xml:space="preserve">
<defs>
</defs>
<path d="M30,0H2C0.895,0,0,0.896,0,2v20c0,1.104,0.895,2,2,2h28c1.105,0,2-0.896,2-2V2C32,0.896,31.105,0,30,0z M28,4v2H4V4H28z
	 M4,20v-8h24v8H4z"/>
<path d="M25.5,16H12c-0.277,0-0.5,0.224-0.5,0.5v1c0,0.276,0.223,0.5,0.5,0.5h13.5c0.277,0,0.5-0.224,0.5-0.5v-1
	C26,16.224,25.777,16,25.5,16z"/>
</svg>
