<?xml version="1.0" encoding="utf-8"?>
<!-- Generator: Adobe Illustrator 15.1.0, SVG Export Plug-In  -->
<!DOCTYPE svg PUBLIC "-//W3C//DTD SVG 1.1//EN" "http://www.w3.org/Graphics/SVG/1.1/DTD/svg11.dtd" [
	<!ENTITY ns_flows "http://ns.adobe.com/Flows/1.0/">
]>
<svg version="1.1"
	 xmlns="http://www.w3.org/2000/svg" xmlns:xlink="http://www.w3.org/1999/xlink" xmlns:a="http://ns.adobe.com/AdobeSVGViewerExtensions/3.0/"
	 x="0px" y="0px" width="32px" height="32px" viewBox="0 -5 32 32" overflow="visible" enable-background="new 0 -5 32 32"
	 xml:space="preserve">
<defs>
</defs>
<path id="youtube_1_" d="M31.786,4.883c0-2.574-2.07-4.664-4.621-4.664C23.524,0.063,19.799-0.005,16,0
	C12.2-0.005,8.475,0.063,4.834,0.219c-2.551,0-4.621,2.09-4.621,4.664C0.061,6.924-0.005,8.961,0,11.002
	c-0.006,2.037,0.061,4.078,0.213,6.117c0,2.576,2.07,4.664,4.621,4.664C8.475,21.938,12.2,22.008,16,22
	c3.799,0.008,7.523-0.062,11.164-0.217c2.551,0,4.621-2.088,4.621-4.664c0.154-2.039,0.221-4.08,0.215-6.117
	C32.006,8.961,31.94,6.924,31.786,4.883z M12,18V4l10,7L12,18z"/>
</svg>
