<?xml version="1.0" encoding="utf-8"?>
<!-- Generator: Adobe Illustrator 15.1.0, SVG Export Plug-In  -->
<!DOCTYPE svg PUBLIC "-//W3C//DTD SVG 1.1//EN" "http://www.w3.org/Graphics/SVG/1.1/DTD/svg11.dtd" [
	<!ENTITY ns_flows "http://ns.adobe.com/Flows/1.0/">
]>
<svg version="1.1"
	 xmlns="http://www.w3.org/2000/svg" xmlns:xlink="http://www.w3.org/1999/xlink" xmlns:a="http://ns.adobe.com/AdobeSVGViewerExtensions/3.0/"
	 x="0px" y="0px" width="32px" height="32px" viewBox="0 -2 32 32" overflow="visible" enable-background="new 0 -2 32 32"
	 xml:space="preserve">
<defs>
</defs>
<circle cx="13" cy="25" r="3"/>
<circle cx="25" cy="25" r="3"/>
<path d="M29.996,4H10.521c-0.211-0.859-0.423-1.725-0.638-2.531c-0.313-0.832-0.861-1.29-1.62-1.416C8.178,0.029,8.094,0,8,0H7.95
	C5.946,0,1,0,1,0C0.447,0,0,0.447,0,1v2c0,0.553,0.447,1,1,1c0,0,3.92,0,5.41,0c1.205,4.512,2.339,10.02,3.544,14.531
	c0.356,0.945,0.998,1.436,1.934,1.469c5.011,0,10.021,0,15.031,0c0.844,0,1.719-0.613,1.934-1.469
	c0.967-3.861,1.934-7.758,2.9-11.623C31.836,6.605,31.918,6.303,32,6C32,4.895,31.104,4,29.996,4z"/>
</svg>
