<?xml version="1.0" encoding="utf-8"?>
<!-- Generator: Adobe Illustrator 15.1.0, SVG Export Plug-In  -->
<!DOCTYPE svg PUBLIC "-//W3C//DTD SVG 1.1//EN" "http://www.w3.org/Graphics/SVG/1.1/DTD/svg11.dtd" [
	<!ENTITY ns_flows "http://ns.adobe.com/Flows/1.0/">
]>
<svg version="1.1"
	 xmlns="http://www.w3.org/2000/svg" xmlns:xlink="http://www.w3.org/1999/xlink" xmlns:a="http://ns.adobe.com/AdobeSVGViewerExtensions/3.0/"
	 x="0px" y="0px" width="32px" height="32px" viewBox="0 -4 32 32" overflow="visible" enable-background="new 0 -4 32 32"
	 xml:space="preserve">
<defs>
</defs>
<path fill-rule="evenodd" clip-rule="evenodd" d="M17.091,17.651c-0.121,0.08-0.249,0.131-0.382,0.183
	c-0.112,0.043-0.22,0.091-0.336,0.113c-0.13,0.025-0.258,0.021-0.391,0.02c-0.124-0.001-0.244,0.003-0.367-0.021
	c-0.122-0.024-0.234-0.074-0.353-0.122c-0.127-0.052-0.249-0.101-0.364-0.179c-0.036-0.023-0.078-0.028-0.113-0.055L0,6.284V22
	c0,1.105,0.895,2,2,2h28c1.105,0,2-0.895,2-2V6.485L17.199,17.6C17.166,17.625,17.125,17.629,17.091,17.651z"/>
<path fill-rule="evenodd" clip-rule="evenodd" d="M32,2c0-1.105-0.895-2-2-2H2C0.895,0,0,0.895,0,2l15.999,12.334L32,2z"/>
</svg>
