<?xml version="1.0" encoding="utf-8"?>
<!-- Generator: Adobe Illustrator 15.1.0, SVG Export Plug-In  -->
<!DOCTYPE svg PUBLIC "-//W3C//DTD SVG 1.1//EN" "http://www.w3.org/Graphics/SVG/1.1/DTD/svg11.dtd" [
	<!ENTITY ns_flows "http://ns.adobe.com/Flows/1.0/">
]>
<svg version="1.1"
	 xmlns="http://www.w3.org/2000/svg" xmlns:xlink="http://www.w3.org/1999/xlink" xmlns:a="http://ns.adobe.com/AdobeSVGViewerExtensions/3.0/"
	 x="0px" y="0px" width="32px" height="32px" viewBox="0.012 0 32 32" overflow="visible" enable-background="new 0.012 0 32 32"
	 xml:space="preserve">
<defs>
</defs>
<path fill-rule="evenodd" clip-rule="evenodd" d="M3,11.995H1c-0.553,0-1,0.447-1,1v18c0,0.553,0.447,1,1,1l2-0.02
	c0.553,0,1-0.447,1-1v-18C4,12.423,3.553,11.995,3,11.995z"/>
<path fill-rule="evenodd" clip-rule="evenodd" d="M31.889,12.679c-0.139-0.252-0.39-0.461-0.746-0.621
	c-0.09-0.04-0.185-0.067-0.282-0.08c-0.849-0.109-4.86-0.981-11.872-0.981C19.896,8.173,20,7.704,20,4.995
	c0-3-1.846-4.967-3.002-4.995c-0.548,0-0.993,0.441-0.999,0.988c-0.045,3.944-1.956,8.924-7.104,11.044
	c-0.542,0.171-0.906,0.645-0.906,1.182l0.008,15.781c0,0.844,0.921,1,0.921,1c0.285,0.084,0.526,0.177,5.062,1.27
	c0.077,0.018,3.052,0.73,6.052,0.73H26c1.125,0,1.656-0.375,1.987-0.998c0.04-0.08,4-8.114,4.024-17.834
	C32.012,12.994,31.97,12.827,31.889,12.679z"/>
</svg>
