<?xml version="1.0" encoding="utf-8"?>
<!-- Generator: Adobe Illustrator 15.1.0, SVG Export Plug-In  -->
<!DOCTYPE svg PUBLIC "-//W3C//DTD SVG 1.1//EN" "http://www.w3.org/Graphics/SVG/1.1/DTD/svg11.dtd" [
	<!ENTITY ns_flows "http://ns.adobe.com/Flows/1.0/">
]>
<svg version="1.1"
	 xmlns="http://www.w3.org/2000/svg" xmlns:xlink="http://www.w3.org/1999/xlink" xmlns:a="http://ns.adobe.com/AdobeSVGViewerExtensions/3.0/"
	 x="0px" y="0px" width="32px" height="32px" viewBox="-0.001 -6 32 32"
	 overflow="visible" enable-background="new -0.001 -6 32 32" xml:space="preserve">
<defs>
</defs>
<path d="M11.921,14.375l-0.001-0.002l9.712-6.372v0.001l5.612-3.683l-0.001-0.001l2.445-1.604c0.133-0.088,0.225-0.225,0.258-0.38
	c0.031-0.156,0-0.318-0.086-0.452l-0.439-0.668c-0.115-0.175-0.307-0.27-0.502-0.27c-0.113,0-0.229,0.031-0.33,0.098l-3.06,2.008
	C22.609,1.086,19.358,0,16,0C9.927,0,4.155,3.445,0.166,9.451c-0.222,0.334-0.222,0.764,0,1.098c1.521,2.29,3.307,4.194,5.265,5.689
	L2.31,18.286c-0.133,0.088-0.225,0.225-0.258,0.38c-0.031,0.156,0,0.318,0.086,0.452l0.439,0.668c0.115,0.175,0.307,0.27,0.502,0.27
	c0.113,0,0.229-0.031,0.33-0.098l3.801-2.494c0,0.001,0.001,0.001,0.001,0.001L11.921,14.375z M9.999,10c0-3.309,2.691-6,6-6
	c1.886,0,3.552,0.887,4.646,2.255l-9.927,6.514C10.274,11.938,9.999,11.007,9.999,10z"/>
<path d="M31.833,9.451c-0.926-1.395-1.957-2.636-3.057-3.744l-6.794,4.459C21.893,13.396,19.251,16,15.999,16
	c-0.791,0-1.543-0.162-2.235-0.441l-4.522,2.967C11.396,19.486,13.674,20,16,20c6.075,0,11.847-3.445,15.833-9.451
	C32.055,10.215,32.055,9.785,31.833,9.451z"/>
</svg>
