<?xml version="1.0" encoding="utf-8"?>
<!-- Generator: Adobe Illustrator 15.1.0, SVG Export Plug-In  -->
<!DOCTYPE svg PUBLIC "-//W3C//DTD SVG 1.1//EN" "http://www.w3.org/Graphics/SVG/1.1/DTD/svg11.dtd" [
	<!ENTITY ns_flows "http://ns.adobe.com/Flows/1.0/">
]>
<svg version="1.1"
	 xmlns="http://www.w3.org/2000/svg" xmlns:xlink="http://www.w3.org/1999/xlink" xmlns:a="http://ns.adobe.com/AdobeSVGViewerExtensions/3.0/"
	 x="0px" y="0px" width="32px" height="32px" viewBox="-0.997 0 32 32" overflow="visible" enable-background="new -0.997 0 32 32"
	 xml:space="preserve">
<defs>
</defs>
<path d="M28.003,4h-2h-0.001H26V2.001c0-1.104-0.896-2-2-2h-2c-1.104,0-2,0.896-2,2V4h-9.999H10V2c0-1.104-0.896-2-2-2H6
	C4.896,0,4,0.896,4,2v2H2.001c-1.104,0-2,0.896-2,2L0,30.001c0,1.104,0.896,2,2,2h26.002c1.104,0,2-0.896,2-2L30.003,6
	C30.003,4.896,29.107,4,28.003,4z M26.001,28.001h-22l-0.002-18h22.002V28.001z M8.003,5.5c0,0.276-0.224,0.5-0.5,0.5h-1
	c-0.276,0-0.5-0.224-0.5-0.5v-3c0-0.276,0.224-0.5,0.5-0.5h1c0.276,0,0.5,0.224,0.5,0.5V5.5z M24.003,5.5c0,0.276-0.224,0.5-0.5,0.5
	h-1c-0.276,0-0.5-0.224-0.5-0.5v-3c0-0.276,0.224-0.5,0.5-0.5h1c0.276,0,0.5,0.224,0.5,0.5V5.5z"/>
</svg>
