<?xml version="1.0" encoding="utf-8"?>
<!-- Generator: Adobe Illustrator 15.1.0, SVG Export Plug-In  -->
<!DOCTYPE svg PUBLIC "-//W3C//DTD SVG 1.1//EN" "http://www.w3.org/Graphics/SVG/1.1/DTD/svg11.dtd" [
	<!ENTITY ns_flows "http://ns.adobe.com/Flows/1.0/">
]>
<svg version="1.1"
	 xmlns="http://www.w3.org/2000/svg" xmlns:xlink="http://www.w3.org/1999/xlink" xmlns:a="http://ns.adobe.com/AdobeSVGViewerExtensions/3.0/"
	 x="0px" y="0px" width="32px" height="32px" viewBox="0 0.002 32 32" overflow="visible" enable-background="new 0 0.002 32 32"
	 xml:space="preserve">
<defs>
</defs>
<path id="clip_1_" d="M29.366,2.635c-3.514-3.514-9.213-3.514-12.729,0.002l-14,14c-3.516,3.516-3.516,9.215-0.002,12.729
	s9.213,3.516,12.729,0l2.965-2.881c-1.594-0.035-3.049-0.555-4.279-1.396l-1.514,1.449c-1.953,1.953-5.119,1.953-7.072,0
	c-1.951-1.951-1.951-5.119,0.002-7.072l14-14c1.953-1.953,5.119-1.953,7.07,0c1.953,1.953,1.955,5.117,0.002,7.07l-6.977,7.025
	c-0.586,0.586-1.535,0.586-2.121,0s-0.586-1.535,0-2.121l5.268-5.318c0.391-0.391,0.393-1.023,0-1.414l-1.414-1.414
	c-0.391-0.391-1.023-0.391-1.414,0l-5.268,5.318c-2.148,2.148-2.148,5.631,0,7.777c2.148,2.148,5.631,2.148,7.777,0l6.977-7.025
	C32.879,11.848,32.879,6.149,29.366,2.635z"/>
</svg>
