<?xml version="1.0" encoding="utf-8"?>
<!-- Generator: Adobe Illustrator 15.1.0, SVG Export Plug-In  -->
<!DOCTYPE svg PUBLIC "-//W3C//DTD SVG 1.1//EN" "http://www.w3.org/Graphics/SVG/1.1/DTD/svg11.dtd" [
	<!ENTITY ns_flows "http://ns.adobe.com/Flows/1.0/">
]>
<svg version="1.1"
	 xmlns="http://www.w3.org/2000/svg" xmlns:xlink="http://www.w3.org/1999/xlink" xmlns:a="http://ns.adobe.com/AdobeSVGViewerExtensions/3.0/"
	 x="0px" y="0px" width="32px" height="32px" viewBox="0 -5 32 32" overflow="visible" enable-background="new 0 -5 32 32"
	 xml:space="preserve">
<defs>
</defs>
<path id="download_1_" d="M29.472,9.656C29.809,8.836,30,7.941,30,7c0-3.867-3.134-7-7-7c-2.513,0-4.697,1.336-5.933,3.322
	C15.919,2.498,14.521,2,13,2C9.445,2,6.541,4.66,6.092,8.092C2.659,8.541,0,11.445,0,15c0,3.867,3.134,7,7,7h18c3.866,0,7-3.133,7-7
	C32,12.844,31.004,10.939,29.472,9.656z M23.685,15.762l-5.924,5.922C17.552,21.895,17.275,22,17,22s-0.552-0.105-0.761-0.316
	l-5.924-5.922c-0.308-0.309-0.4-0.77-0.233-1.174C10.248,14.186,10.564,14,11,14h3V9c0-1,1-1,1-1h4c-0.456,0,1,0,1,1v5h3
	c0.436,0,0.752,0.186,0.918,0.588C24.085,14.992,23.992,15.453,23.685,15.762z"/>
</svg>
