<?xml version="1.0" encoding="utf-8"?>
<!-- Generator: Adobe Illustrator 15.1.0, SVG Export Plug-In  -->
<!DOCTYPE svg PUBLIC "-//W3C//DTD SVG 1.1//EN" "http://www.w3.org/Graphics/SVG/1.1/DTD/svg11.dtd" [
	<!ENTITY ns_flows "http://ns.adobe.com/Flows/1.0/">
]>
<svg version="1.1"
	 xmlns="http://www.w3.org/2000/svg" xmlns:xlink="http://www.w3.org/1999/xlink" xmlns:a="http://ns.adobe.com/AdobeSVGViewerExtensions/3.0/"
	 x="0px" y="0px" width="32px" height="32px" viewBox="0 -2 32 32" overflow="visible" enable-background="new 0 -2 32 32"
	 xml:space="preserve">
<defs>
</defs>
<path id="book_1_" d="M16,28c-0.186,0-0.373-0.052-0.537-0.156C13.953,26.884,11.023,26.001,8,26
	c-2.533,0.001-4.939,1.198-6.604,1.918C1.27,27.973,1.135,28,1,28c-0.191,0-0.383-0.056-0.549-0.164C0.17,27.651,0,27.337,0,27
	V2.473C0,2.14,4.227,0.001,8,0c4.121,0.001,8,2,8,2l0,0c0,0,3.875-2,7.994-2C27.771,0.001,32,2.14,32,2.473V27
	c0,0.337-0.17,0.651-0.451,0.836C31.383,27.944,31.191,28,31,28c-0.135,0-0.27-0.027-0.396-0.082C28.939,27.198,26.533,26.001,24,26
	c-3.023,0.001-5.953,0.884-7.463,1.844C16.373,27.948,16.186,28,16,28z M18,23c0,0,2-1,5-1c0,0,3,0,5,1c0,0,0-16,0-18c-2-1-5-1-5-1
	c-3,0-5,1-5,1V23z M9,22c3,0,5,1,5,1V5c0,0-2-1-5-1c0,0-3-0.002-5,0.999C4,7,4,23,4,23C6,22,9,22,9,22z"/>
</svg>
