<?xml version="1.0" encoding="utf-8"?>
<!-- Generator: Adobe Illustrator 15.1.0, SVG Export Plug-In  -->
<!DOCTYPE svg PUBLIC "-//W3C//DTD SVG 1.1//EN" "http://www.w3.org/Graphics/SVG/1.1/DTD/svg11.dtd" [
	<!ENTITY ns_flows "http://ns.adobe.com/Flows/1.0/">
]>
<svg version="1.1"
	 xmlns="http://www.w3.org/2000/svg" xmlns:xlink="http://www.w3.org/1999/xlink" xmlns:a="http://ns.adobe.com/AdobeSVGViewerExtensions/3.0/"
	 x="0px" y="0px" width="32px" height="32px" viewBox="0 0 32 32" overflow="visible" enable-background="new 0 0 32 32"
	 xml:space="preserve">
<defs>
</defs>
<path d="M16.766,0.152C16.518,0.051,16.258,0,16,0c-0.52,0-1.031,0.203-1.414,0.586L7,8H2c-1.104,0-2,0.895-2,2v12
	c0,1.105,0.896,2,2,2h5.035l7.551,7.414C14.969,31.797,15.48,32,16,32c0.258,0,0.518-0.051,0.766-0.152
	C17.512,31.539,18,30.809,18,30V2C18,1.191,17.512,0.461,16.766,0.152z"/>
<path d="M22.383,9.363l-2.635,2.635c1.078,0.906,1.807,2.338,1.807,4.002s-0.719,3.105-1.797,4.012l2.668,2.668
	C24.002,21.035,25,18.656,25,16C25,13.34,23.965,11.008,22.383,9.363z"/>
<path d="M27.465,4.281l-2.822,2.822C26.693,9.293,28,12.453,28,16s-1.307,6.707-3.355,8.898l2.82,2.82C30.24,24.805,32,20.65,32,16
	S30.24,7.195,27.465,4.281z"/>
</svg>
