<?xml version="1.0" encoding="utf-8"?>
<!-- Generator: Adobe Illustrator 15.1.0, SVG Export Plug-In  -->
<!DOCTYPE svg PUBLIC "-//W3C//DTD SVG 1.1//EN" "http://www.w3.org/Graphics/SVG/1.1/DTD/svg11.dtd" [
	<!ENTITY ns_flows "http://ns.adobe.com/Flows/1.0/">
]>
<svg version="1.1"
	 xmlns="http://www.w3.org/2000/svg" xmlns:xlink="http://www.w3.org/1999/xlink" xmlns:a="http://ns.adobe.com/AdobeSVGViewerExtensions/3.0/"
	 x="0px" y="0px" width="32px" height="32px" viewBox="0 -5 32 32" overflow="visible" enable-background="new 0 -5 32 32"
	 xml:space="preserve">
<defs>
</defs>
<path id="cloud_1_" d="M29.472,9.656C29.809,8.836,30,7.941,30,7c0-3.867-3.134-7-7-7c-2.513,0-4.697,1.336-5.933,3.322
	C15.919,2.498,14.521,2,13,2C9.445,2,6.541,4.66,6.092,8.092C2.659,8.541,0,11.445,0,15c0,3.867,3.134,7,7,7h18c3.866,0,7-3.133,7-7
	C32,12.844,31.004,10.939,29.472,9.656z"/>
</svg>
