<?xml version="1.0" encoding="utf-8"?>
<!-- Generator: Adobe Illustrator 15.1.0, SVG Export Plug-In  -->
<!DOCTYPE svg PUBLIC "-//W3C//DTD SVG 1.1//EN" "http://www.w3.org/Graphics/SVG/1.1/DTD/svg11.dtd" [
	<!ENTITY ns_flows "http://ns.adobe.com/Flows/1.0/">
]>
<svg version="1.1"
	 xmlns="http://www.w3.org/2000/svg" xmlns:xlink="http://www.w3.org/1999/xlink" xmlns:a="http://ns.adobe.com/AdobeSVGViewerExtensions/3.0/"
	 x="0px" y="0px" width="32px" height="32px" viewBox="0 0 32 32" overflow="visible" enable-background="new 0 0 32 32"
	 xml:space="preserve">
<defs>
</defs>
<path id="home_1_" fill-rule="evenodd" clip-rule="evenodd" d="M31.769,18.359L28,13.837V5c0-0.553-0.447-1-1-1h-2
	c-0.553,0-1,0.447-1,1v4.037l-7.231-8.678C16.578,0.132,16.297,0,16,0s-0.578,0.132-0.769,0.359l-15,18
	c-0.248,0.299-0.302,0.714-0.137,1.064C0.259,19.775,0.612,20,1,20h3.001v11.053c0,1.053,1,1,1,1h6c1,0,1-1,1-1L12,24
	c0-2.209,1.791-4,4-4c2.207,0,3.996,1.788,3.999,3.994c0,0.003,0.002,0.004,0.002,0.006v7c0,0,0,1.041,1,1.041s6,0.012,6,0.012
	c1,0,1-1,1-1V20H31c0.388,0,0.741-0.225,0.905-0.576C32.07,19.073,32.017,18.658,31.769,18.359z"/>
</svg>
