<?xml version="1.0" encoding="utf-8"?>
<!-- Generator: Adobe Illustrator 15.1.0, SVG Export Plug-In  -->
<!DOCTYPE svg PUBLIC "-//W3C//DTD SVG 1.1//EN" "http://www.w3.org/Graphics/SVG/1.1/DTD/svg11.dtd" [
	<!ENTITY ns_flows "http://ns.adobe.com/Flows/1.0/">
]>
<svg version="1.1"
	 xmlns="http://www.w3.org/2000/svg" xmlns:xlink="http://www.w3.org/1999/xlink" xmlns:a="http://ns.adobe.com/AdobeSVGViewerExtensions/3.0/"
	 x="0px" y="0px" width="32px" height="32px" viewBox="0 0 32 32" overflow="visible" enable-background="new 0 0 32 32"
	 xml:space="preserve">
<defs>
</defs>
<path id="cross_1_" d="M20.242,16L31.707,4.535c0.391-0.391,0.391-1.023,0-1.414l-2.828-2.828C28.684,0.098,28.428,0,28.172,0
	s-0.512,0.098-0.707,0.293L16,11.758L4.535,0.293c-0.391-0.391-1.023-0.391-1.414,0L0.293,3.121C0.098,3.316,0,3.572,0,3.828
	S0.098,4.34,0.293,4.535L11.758,16L0.293,27.465c-0.391,0.391-0.391,1.023,0,1.414l2.828,2.828C3.316,31.902,3.572,32,3.828,32
	s0.512-0.098,0.707-0.293L16,20.242l11.465,11.465c0.391,0.391,1.023,0.391,1.414,0l2.828-2.828C31.902,28.684,32,28.428,32,28.172
	s-0.098-0.512-0.293-0.707L20.242,16z"/>
</svg>
