<?xml version="1.0" encoding="utf-8"?>
<!-- Generator: Adobe Illustrator 15.1.0, SVG Export Plug-In  -->
<!DOCTYPE svg PUBLIC "-//W3C//DTD SVG 1.1//EN" "http://www.w3.org/Graphics/SVG/1.1/DTD/svg11.dtd" [
	<!ENTITY ns_flows "http://ns.adobe.com/Flows/1.0/">
]>
<svg version="1.1"
	 xmlns="http://www.w3.org/2000/svg" xmlns:xlink="http://www.w3.org/1999/xlink" xmlns:a="http://ns.adobe.com/AdobeSVGViewerExtensions/3.0/"
	 x="0px" y="0px" width="32px" height="32px" viewBox="0 -4 32 32" overflow="visible" enable-background="new 0 -4 32 32"
	 xml:space="preserve">
<defs>
</defs>
<path id="macbook_1_" d="M31.975,22c0-0.223-0.049-0.443-0.193-0.625L30,19.15V2c0-1.105-0.895-2-2-2H4C2.896,0,2,0.895,2,2v17.146
	l-1.781,2.229C0.074,21.557,0.025,21.777,0.025,22H0v1c0,0.553,0.447,1,1,1h30c0.553,0,1-0.447,1-1v-1H31.975z M26,18H6V4h20V18z"/>
</svg>
