<?xml version="1.0" encoding="utf-8"?>
<!-- Generator: Adobe Illustrator 15.1.0, SVG Export Plug-In  -->
<!DOCTYPE svg PUBLIC "-//W3C//DTD SVG 1.1//EN" "http://www.w3.org/Graphics/SVG/1.1/DTD/svg11.dtd" [
	<!ENTITY ns_flows "http://ns.adobe.com/Flows/1.0/">
]>
<svg version="1.1"
	 xmlns="http://www.w3.org/2000/svg" xmlns:xlink="http://www.w3.org/1999/xlink" xmlns:a="http://ns.adobe.com/AdobeSVGViewerExtensions/3.0/"
	 x="0px" y="0px" width="32px" height="32px" viewBox="-0.001 -6 32 32"
	 overflow="visible" enable-background="new -0.001 -6 32 32" xml:space="preserve">
<defs>
</defs>
<path id="eye_1_" d="M16,20c-6.074,0-11.845-3.445-15.834-9.451c-0.222-0.334-0.222-0.764,0-1.098C4.155,3.445,9.927,0,16,0
	c6.074,0,11.846,3.445,15.833,9.451c0.222,0.334,0.222,0.764,0,1.098C27.847,16.555,22.075,20,16,20z M15.999,4
	c-3.309,0-6,2.691-6,6s2.691,6,6,6s6-2.691,6-6S19.308,4,15.999,4z"/>
</svg>
