<?xml version="1.0" encoding="utf-8"?>
<!-- Generator: Adobe Illustrator 15.1.0, SVG Export Plug-In  -->
<!DOCTYPE svg PUBLIC "-//W3C//DTD SVG 1.1//EN" "http://www.w3.org/Graphics/SVG/1.1/DTD/svg11.dtd" [
	<!ENTITY ns_flows "http://ns.adobe.com/Flows/1.0/">
]>
<svg version="1.1"
	 xmlns="http://www.w3.org/2000/svg" xmlns:xlink="http://www.w3.org/1999/xlink" xmlns:a="http://ns.adobe.com/AdobeSVGViewerExtensions/3.0/"
	 x="0px" y="0px" width="32px" height="32px" viewBox="0 -2 32 32" overflow="visible" enable-background="new 0 -2 32 32"
	 xml:space="preserve">
<defs>
</defs>
<path id="chat_1_" fill-rule="evenodd" clip-rule="evenodd" d="M16,0C7.163,0,0,5.373,0,12c0,4.127,2.779,7.766,7.008,9.926
	C7.008,21.953,7,21.971,7,22c0,2.5-1.763,5.113-1.969,5.41c-0.03,0.074-0.062,0.25,0.027,0.383C5.151,27.93,5.345,28,5.631,28
	c3.57,0,6.53-3.311,7.283-4.229C13.913,23.918,14.943,24,16,24c8.836,0,16-5.373,16-12S24.836,0,16,0z"/>
</svg>
