<?xml version="1.0" encoding="utf-8"?>
<!-- Generator: Adobe Illustrator 15.1.0, SVG Export Plug-In  -->
<!DOCTYPE svg PUBLIC "-//W3C//DTD SVG 1.1//EN" "http://www.w3.org/Graphics/SVG/1.1/DTD/svg11.dtd" [
	<!ENTITY ns_flows "http://ns.adobe.com/Flows/1.0/">
]>
<svg version="1.1"
	 xmlns="http://www.w3.org/2000/svg" xmlns:xlink="http://www.w3.org/1999/xlink" xmlns:a="http://ns.adobe.com/AdobeSVGViewerExtensions/3.0/"
	 x="0px" y="0px" width="32px" height="32px" viewBox="0 0 32 32" overflow="visible" enable-background="new 0 0 32 32"
	 xml:space="preserve">
<defs>
</defs>
<path d="M13,0H1C0.447,0,0,0.447,0,1v12c0,0.553,0.447,1,1,1h12c0.553,0,1-0.447,1-1V1C14,0.447,13.553,0,13,0z"/>
<path d="M31,0H19c-0.553,0-1,0.447-1,1v12c0,0.553,0.447,1,1,1h12c0.553,0,1-0.447,1-1V1C32,0.447,31.553,0,31,0z"/>
<path d="M13,18H1c-0.553,0-1,0.447-1,1v12c0,0.553,0.447,1,1,1h12c0.553,0,1-0.447,1-1V19C14,18.447,13.553,18,13,18z"/>
<path d="M31,18H19c-0.553,0-1,0.447-1,1v12c0,0.553,0.447,1,1,1h12c0.553,0,1-0.447,1-1V19C32,18.447,31.553,18,31,18z"/>
</svg>
