<?xml version="1.0" encoding="utf-8"?>
<!-- Generator: Adobe Illustrator 15.1.0, SVG Export Plug-In  -->
<!DOCTYPE svg PUBLIC "-//W3C//DTD SVG 1.1//EN" "http://www.w3.org/Graphics/SVG/1.1/DTD/svg11.dtd" [
	<!ENTITY ns_flows "http://ns.adobe.com/Flows/1.0/">
]>
<svg version="1.1"
	 xmlns="http://www.w3.org/2000/svg" xmlns:xlink="http://www.w3.org/1999/xlink" xmlns:a="http://ns.adobe.com/AdobeSVGViewerExtensions/3.0/"
	 x="0px" y="0px" width="32px" height="32px" viewBox="-1 0.001 32 32" overflow="visible" enable-background="new -1 0.001 32 32"
	 xml:space="preserve">
<defs>
</defs>
<path fill-rule="evenodd" clip-rule="evenodd" d="M4.501,22.001h3c0.276,0,0.5-0.224,0.5-0.5v-3c0-0.276-0.224-0.5-0.5-0.5h-3
	c-0.276,0-0.5,0.224-0.5,0.5v3C4.001,21.777,4.225,22.001,4.501,22.001z"/>
<path fill-rule="evenodd" clip-rule="evenodd" d="M13.501,18.001h-3c-0.276,0-0.5,0.224-0.5,0.5v3c0,0.276,0.224,0.5,0.5,0.5h3
	c0.276,0,0.5-0.224,0.5-0.5v-3C14.001,18.225,13.777,18.001,13.501,18.001z"/>
<path fill-rule="evenodd" clip-rule="evenodd" d="M19.501,18.001h-3c-0.276,0-0.5,0.224-0.5,0.5v3c0,0.276,0.224,0.5,0.5,0.5h3
	c0.276,0,0.5-0.224,0.5-0.5v-3C20.001,18.225,19.777,18.001,19.501,18.001z"/>
<path fill-rule="evenodd" clip-rule="evenodd" d="M25.501,18.001h-3c-0.276,0-0.5,0.224-0.5,0.5v3c0,0.276,0.224,0.5,0.5,0.5h3
	c0.276,0,0.5-0.224,0.5-0.5v-3C26.001,18.225,25.777,18.001,25.501,18.001z"/>
<path fill-rule="evenodd" clip-rule="evenodd" d="M4.501,28.001h3c0.276,0,0.5-0.224,0.5-0.5v-3c0-0.276-0.224-0.5-0.5-0.5h-3
	c-0.276,0-0.5,0.224-0.5,0.5v3C4.001,27.777,4.225,28.001,4.501,28.001z"/>
<path fill-rule="evenodd" clip-rule="evenodd" d="M13.501,24.001h-3c-0.276,0-0.5,0.224-0.5,0.5v3c0,0.276,0.224,0.5,0.5,0.5h3
	c0.276,0,0.5-0.224,0.5-0.5v-3C14.001,24.225,13.777,24.001,13.501,24.001z"/>
<path fill-rule="evenodd" clip-rule="evenodd" d="M19.501,24.001h-3c-0.276,0-0.5,0.224-0.5,0.5v3c0,0.276,0.224,0.5,0.5,0.5h3
	c0.276,0,0.5-0.224,0.5-0.5v-3C20.001,24.225,19.777,24.001,19.501,24.001z"/>
<path fill-rule="evenodd" clip-rule="evenodd" d="M25.501,24.001h-3c-0.276,0-0.5,0.224-0.5,0.5v3c0,0.276,0.224,0.5,0.5,0.5h3
	c0.276,0,0.5-0.224,0.5-0.5v-3C26.001,24.225,25.777,24.001,25.501,24.001z"/>
<path fill-rule="evenodd" clip-rule="evenodd" d="M4.501,16.001h21c0.276,0,0.5-0.224,0.5-0.5v-3c0-0.276-0.224-0.5-0.5-0.5h-21
	c-0.276,0-0.5,0.224-0.5,0.5v3C4.001,15.777,4.225,16.001,4.501,16.001z"/>
<path fill-rule="evenodd" clip-rule="evenodd" d="M30.002,6c0-1.104-0.896-2-2-2h-1.999h-0.001H26V2.001c0-1.104-0.896-2-2-2h-2
	c-1.104,0-2,0.896-2,2V4h-9.999H10V2c0-1.104-0.896-2-2-2H6C4.896,0,4,0.896,4,2v2H2.001c-1.104,0-2,0.896-2,2L0,30.001
	c0,1.104,0.896,2,2,2h26.001c1.104,0,2.002-0.896,2.002-2.001L30.002,6z M22.003,2.5c0-0.276,0.224-0.5,0.5-0.5h1
	c0.276,0,0.5,0.224,0.5,0.5v3c0,0.276-0.224,0.5-0.5,0.5h-1c-0.276,0-0.5-0.224-0.5-0.5V2.5z M6.003,2.5c0-0.276,0.224-0.5,0.5-0.5
	h1c0.276,0,0.5,0.224,0.5,0.5v3c0,0.276-0.224,0.5-0.5,0.5h-1c-0.276,0-0.5-0.224-0.5-0.5V2.5z M28.001,30.001h-26v-20h26V30.001z"
	/>
</svg>
