<?xml version="1.0" encoding="utf-8"?>
<!-- Generator: Adobe Illustrator 15.1.0, SVG Export Plug-In  -->
<!DOCTYPE svg PUBLIC "-//W3C//DTD SVG 1.1//EN" "http://www.w3.org/Graphics/SVG/1.1/DTD/svg11.dtd" [
	<!ENTITY ns_flows "http://ns.adobe.com/Flows/1.0/">
]>
<svg version="1.1"
	 xmlns="http://www.w3.org/2000/svg" xmlns:xlink="http://www.w3.org/1999/xlink" xmlns:a="http://ns.adobe.com/AdobeSVGViewerExtensions/3.0/"
	 x="0px" y="0px" width="32px" height="32px" viewBox="0 0 32 32" overflow="visible" enable-background="new 0 0 32 32"
	 xml:space="preserve">
<defs>
</defs>
<path id="filter_1_" fill-rule="evenodd" clip-rule="evenodd" d="M16,0C7.164,0,0,2.687,0,6c0,0.938,0,2,2,4c0,0,7,7,10,9
	c0,4,0,11,0,11c0,1.104,1.791,2,4,2s4-0.896,4-2c0,0,0-9,0-11c3-2,10-9,10-9c2-2,2-3.062,2-4C32,2.687,24.836,0,16,0z M16,10.938
	c-6.627,0-12-1.777-12-3.969S9.373,3,16,3c6.629,0,12,1.777,12,3.969S22.629,10.938,16,10.938z"/>
</svg>
