<?xml version="1.0" encoding="utf-8"?>
<!-- Generator: Adobe Illustrator 15.1.0, SVG Export Plug-In  -->
<!DOCTYPE svg PUBLIC "-//W3C//DTD SVG 1.1//EN" "http://www.w3.org/Graphics/SVG/1.1/DTD/svg11.dtd" [
	<!ENTITY ns_flows "http://ns.adobe.com/Flows/1.0/">
]>
<svg version="1.1"
	 xmlns="http://www.w3.org/2000/svg" xmlns:xlink="http://www.w3.org/1999/xlink" xmlns:a="http://ns.adobe.com/AdobeSVGViewerExtensions/3.0/"
	 x="0px" y="0px" width="32px" height="32px" viewBox="0 0.002 32 32" overflow="visible" enable-background="new 0 0.002 32 32"
	 xml:space="preserve">
<defs>
</defs>
<path d="M2,32c-1.103,0-2-0.896-2-2V2c0-1.104,0.897-2,2-2h13c0.553,0,1,0.447,1,1v2c0,0.553-0.447,1-1,1H4v24h24V17
	c0-0.553,0.447-1,1-1h2c0.553,0,1,0.447,1,1v13c0,1.104-0.897,2-2,2H2z"/>
<path d="M31,0.002H21c-0.404,0-0.77,0.242-0.924,0.617c-0.155,0.373-0.069,0.803,0.217,1.09l3.586,3.586l-10,10
	c-0.391,0.391-0.391,1.023,0,1.414l1.414,1.414c0.393,0.391,1.025,0.391,1.416,0l9.999-10l3.585,3.586
	C30.484,11.9,30.74,12.002,31,12.002c0.129,0,0.259-0.025,0.383-0.078C31.757,11.771,32,11.404,32,11.002v-10
	C32,0.447,31.553,0.002,31,0.002z"/>
</svg>
