<?xml version="1.0" encoding="utf-8"?>
<!-- Generator: Adobe Illustrator 15.1.0, SVG Export Plug-In  -->
<!DOCTYPE svg PUBLIC "-//W3C//DTD SVG 1.1//EN" "http://www.w3.org/Graphics/SVG/1.1/DTD/svg11.dtd" [
	<!ENTITY ns_flows "http://ns.adobe.com/Flows/1.0/">
]>
<svg version="1.1"
	 xmlns="http://www.w3.org/2000/svg" xmlns:xlink="http://www.w3.org/1999/xlink" xmlns:a="http://ns.adobe.com/AdobeSVGViewerExtensions/3.0/"
	 x="0px" y="0px" width="32px" height="32px" viewBox="0 0 32 32" overflow="visible" enable-background="new 0 0 32 32"
	 xml:space="preserve">
<defs>
</defs>
<path d="M12.293,18.293c-0.393-0.391-1.025-0.391-1.416,0l-5.585,5.586l-3.585-3.582C1.516,20.105,1.26,20.004,1,20.004
	c-0.129,0-0.259,0.023-0.383,0.074C0.243,20.234,0,20.598,0,21.004V31c0,0.555,0.447,1,1,1h9.999c0.404,0,0.77-0.242,0.924-0.617
	c0.156-0.371,0.07-0.801-0.217-1.09l-3.585-3.586l5.586-5.586c0.391-0.391,0.391-1.023,0-1.414L12.293,18.293z"/>
<path d="M31.383,20.078c-0.124-0.051-0.254-0.074-0.383-0.074c-0.26,0-0.516,0.102-0.707,0.293l-3.585,3.582l-5.585-5.586
	c-0.391-0.391-1.023-0.391-1.416,0l-1.414,1.414c-0.391,0.391-0.391,1.023,0,1.414l5.586,5.586l-3.585,3.586
	c-0.287,0.289-0.373,0.719-0.217,1.09C20.231,31.758,20.597,32,21.001,32H31c0.553,0,1-0.445,1-1v-9.996
	C32,20.598,31.757,20.234,31.383,20.078z"/>
<path d="M8.121,5.289l3.585-3.586c0.287-0.285,0.373-0.715,0.217-1.09C11.769,0.238,11.403,0,10.999,0H1C0.447,0,0,0.445,0,0.996v10
	c0,0.402,0.243,0.77,0.617,0.922C0.741,11.973,0.871,11.996,1,11.996c0.26,0,0.516-0.102,0.707-0.293l3.585-3.582l5.585,5.586
	c0.391,0.391,1.023,0.391,1.416-0.004l1.414-1.414c0.391-0.391,0.391-1.023,0-1.414L8.121,5.289z"/>
<path d="M31,0h-9.999c-0.404,0-0.77,0.238-0.924,0.613c-0.156,0.375-0.07,0.805,0.217,1.09l3.585,3.586l-5.586,5.586
	c-0.391,0.391-0.391,1.023,0,1.414l1.414,1.414c0.393,0.395,1.025,0.395,1.416,0.004l5.585-5.586l3.585,3.582
	c0.191,0.191,0.447,0.293,0.707,0.293c0.129,0,0.259-0.023,0.383-0.078C31.757,11.766,32,11.398,32,10.996v-10
	C32,0.445,31.553,0,31,0z"/>
</svg>
