<?xml version="1.0" encoding="utf-8"?>
<!-- Generator: Adobe Illustrator 15.1.0, SVG Export Plug-In  -->
<!DOCTYPE svg PUBLIC "-//W3C//DTD SVG 1.1//EN" "http://www.w3.org/Graphics/SVG/1.1/DTD/svg11.dtd" [
	<!ENTITY ns_flows "http://ns.adobe.com/Flows/1.0/">
]>
<svg version="1.1"
	 xmlns="http://www.w3.org/2000/svg" xmlns:xlink="http://www.w3.org/1999/xlink" xmlns:a="http://ns.adobe.com/AdobeSVGViewerExtensions/3.0/"
	 x="0px" y="0px" width="32px" height="32px" viewBox="0 -1 32 32" overflow="visible" enable-background="new 0 -1 32 32"
	 xml:space="preserve">
<defs>
</defs>
<path d="M31.922,17.449l-4-16C27.679,0.596,26.889,0,26,0H6C5.11,0,4.32,0.597,4.078,1.449L0.076,17.455C0.025,17.638,0,17.821,0,18
	v9c0,1.493,0.928,3,3,3h26c1.493,0,3-0.928,3-3v-9C32,17.817,31.974,17.633,31.922,17.449z M22.617,18
	c-0.379,0-0.725,0.214-0.895,0.553L19.999,22h-8l-1.724-3.447C10.105,18.214,9.76,18,9.381,18H4L7.508,4h16.984L28,18H22.617z"/>
<polygon points="23,6 9,6 8.6,8 23.4,8 "/>
<polygon points="7,16 25,16 24.6,14 7.4,14 "/>
<polygon points="23.8,10 8.2,10 7.8,12 24.2,12 "/>
</svg>
