<?xml version="1.0" encoding="utf-8"?>
<!-- Generator: Adobe Illustrator 15.1.0, SVG Export Plug-In  -->
<!DOCTYPE svg PUBLIC "-//W3C//DTD SVG 1.1//EN" "http://www.w3.org/Graphics/SVG/1.1/DTD/svg11.dtd" [
	<!ENTITY ns_flows "http://ns.adobe.com/Flows/1.0/">
]>
<svg version="1.1"
	 xmlns="http://www.w3.org/2000/svg" xmlns:xlink="http://www.w3.org/1999/xlink" xmlns:a="http://ns.adobe.com/AdobeSVGViewerExtensions/3.0/"
	 x="0px" y="0px" width="32px" height="32px" viewBox="0 0 32 32" overflow="visible" enable-background="new 0 0 32 32"
	 xml:space="preserve">
<defs>
</defs>
<path d="M19,14h9.999c0.404,0,0.77-0.242,0.924-0.617c0.156-0.371,0.07-0.801-0.217-1.09l-3.585-3.586l5.586-5.586
	c0.391-0.391,0.391-1.023,0-1.414l-1.414-1.414c-0.393-0.391-1.025-0.391-1.416,0l-5.585,5.586l-3.585-3.582
	C19.516,2.105,19.26,2.004,19,2.004c-0.129,0-0.259,0.023-0.383,0.074C18.243,2.234,18,2.598,18,3.004V13C18,13.555,18.447,14,19,14
	z"/>
<path d="M13.383,2.078C13.259,2.027,13.129,2.004,13,2.004c-0.26,0-0.516,0.102-0.707,0.293L8.708,5.879L3.123,0.293
	c-0.391-0.391-1.023-0.391-1.416,0L0.293,1.707c-0.391,0.391-0.391,1.023,0,1.414l5.586,5.586l-3.585,3.586
	c-0.287,0.289-0.373,0.719-0.217,1.09C2.231,13.758,2.597,14,3.001,14H13c0.553,0,1-0.445,1-1V3.004
	C14,2.598,13.757,2.234,13.383,2.078z"/>
<path d="M26.121,23.289l3.585-3.586c0.287-0.285,0.373-0.715,0.217-1.09C29.769,18.238,29.403,18,28.999,18H19
	c-0.553,0-1,0.445-1,0.996v10c0,0.402,0.243,0.77,0.617,0.922c0.124,0.055,0.254,0.078,0.383,0.078c0.26,0,0.516-0.102,0.707-0.293
	l3.585-3.582l5.585,5.586c0.391,0.391,1.023,0.391,1.416-0.004l1.414-1.414c0.391-0.391,0.391-1.023,0-1.414L26.121,23.289z"/>
<path d="M13,18H3.001c-0.404,0-0.77,0.238-0.924,0.613c-0.156,0.375-0.07,0.805,0.217,1.09l3.585,3.586l-5.586,5.586
	c-0.391,0.391-0.391,1.023,0,1.414l1.414,1.414c0.393,0.395,1.025,0.395,1.416,0.004l5.585-5.586l3.585,3.582
	c0.191,0.191,0.447,0.293,0.707,0.293c0.129,0,0.259-0.023,0.383-0.078C13.757,29.766,14,29.398,14,28.996v-10
	C14,18.445,13.553,18,13,18z"/>
</svg>
