<?xml version="1.0" encoding="utf-8"?>
<!-- Generator: Adobe Illustrator 15.1.0, SVG Export Plug-In  -->
<!DOCTYPE svg PUBLIC "-//W3C//DTD SVG 1.1//EN" "http://www.w3.org/Graphics/SVG/1.1/DTD/svg11.dtd" [
	<!ENTITY ns_flows "http://ns.adobe.com/Flows/1.0/">
]>
<svg version="1.1"
	 xmlns="http://www.w3.org/2000/svg" xmlns:xlink="http://www.w3.org/1999/xlink" xmlns:a="http://ns.adobe.com/AdobeSVGViewerExtensions/3.0/"
	 x="0px" y="0px" width="32px" height="32px" viewBox="0 0 32 32" overflow="visible" enable-background="new 0 0 32 32"
	 xml:space="preserve">
<defs>
</defs>
<path id="arrow-left2_1_" fill-rule="evenodd" clip-rule="evenodd" d="M15,0c0.129,0,0.258,0.023,0.383,0.074
	C15.754,0.23,16,0.594,16,1v9h15c0.551,0,1,0.445,1,1v10c0,0.551-0.449,1-1,1H16v9c0,0.402-0.246,0.77-0.617,0.922
	C15.258,31.973,15.129,32,15,32c-0.262,0-0.516-0.102-0.707-0.293l-14-15C0.098,16.512,0,16.254,0,16
	c0-0.258,0.098-0.512,0.293-0.707l14-15C14.484,0.102,14.738,0,15,0z"/>
</svg>
