<?xml version="1.0" encoding="utf-8"?>
<!-- Generator: Adobe Illustrator 15.1.0, SVG Export Plug-In  -->
<!DOCTYPE svg PUBLIC "-//W3C//DTD SVG 1.1//EN" "http://www.w3.org/Graphics/SVG/1.1/DTD/svg11.dtd" [
	<!ENTITY ns_flows "http://ns.adobe.com/Flows/1.0/">
]>
<svg version="1.1"
	 xmlns="http://www.w3.org/2000/svg" xmlns:xlink="http://www.w3.org/1999/xlink" xmlns:a="http://ns.adobe.com/AdobeSVGViewerExtensions/3.0/"
	 x="0px" y="0px" width="32px" height="32px" viewBox="0 0 32 32" overflow="visible" enable-background="new 0 0 32 32"
	 xml:space="preserve">
<defs>
</defs>
<path fill-rule="evenodd" clip-rule="evenodd" d="M19,0h-6c-0.553,0-1,0.447-1,1v30c0,0.553,0.447,1,1,1h6c0.553,0,1-0.447,1-1V1
	C20,0.447,19.553,0,19,0z"/>
<path fill-rule="evenodd" clip-rule="evenodd" d="M7,16H1c-0.553,0-1,0.447-1,1v14c0,0.553,0.447,1,1,1h6c0.553,0,1-0.447,1-1V17
	C8,16.447,7.553,16,7,16z"/>
<path fill-rule="evenodd" clip-rule="evenodd" d="M31,8h-6c-0.553,0-1,0.447-1,1v22c0,0.553,0.447,1,1,1h6c0.553,0,1-0.447,1-1V9
	C32,8.447,31.553,8,31,8z"/>
</svg>
