<?xml version="1.0" encoding="utf-8"?>
<!-- Generator: Adobe Illustrator 15.1.0, SVG Export Plug-In  -->
<!DOCTYPE svg PUBLIC "-//W3C//DTD SVG 1.1//EN" "http://www.w3.org/Graphics/SVG/1.1/DTD/svg11.dtd" [
	<!ENTITY ns_flows "http://ns.adobe.com/Flows/1.0/">
]>
<svg version="1.1"
	 xmlns="http://www.w3.org/2000/svg" xmlns:xlink="http://www.w3.org/1999/xlink" xmlns:a="http://ns.adobe.com/AdobeSVGViewerExtensions/3.0/"
	 x="0px" y="0px" width="32px" height="32px" viewBox="0 0 32 32" overflow="visible" enable-background="new 0 0 32 32"
	 xml:space="preserve">
<defs>
</defs>
<path d="M16.766,0.152C16.518,0.051,16.258,0,16,0c-0.52,0-1.031,0.203-1.414,0.586L7,8H2c-1.105,0-2,0.895-2,2v12
	c0,1.105,0.895,2,2,2h5.035l7.551,7.414C14.969,31.797,15.48,32,16,32c0.258,0,0.518-0.051,0.766-0.152
	C17.512,31.539,18,30.809,18,30V2C18,1.191,17.512,0.461,16.766,0.152z"/>
<path d="M29.223,16l2.463-2.465C31.887,13.336,32,13.061,32,12.777c0-0.285-0.113-0.559-0.314-0.762l-1.705-1.703
	C29.77,10.105,29.496,10,29.221,10s-0.549,0.105-0.76,0.314l-2.463,2.461l-2.459-2.459C23.338,10.113,23.066,10,22.779,10
	c-0.285,0-0.557,0.113-0.76,0.316l-1.703,1.703c-0.418,0.42-0.418,1.1,0,1.52L22.777,16l-2.463,2.461
	C20.113,18.662,20,18.934,20,19.221c0,0.283,0.113,0.557,0.314,0.76l1.705,1.703c0.199,0.201,0.473,0.314,0.758,0.314
	s0.559-0.113,0.76-0.314l2.461-2.463l2.465,2.465C28.672,21.895,28.947,22,29.223,22c0.273,0,0.551-0.105,0.758-0.314l1.705-1.703
	c0.42-0.418,0.42-1.1,0-1.518L29.223,16z"/>
</svg>
