<?xml version="1.0" encoding="utf-8"?>
<!-- Generator: Adobe Illustrator 15.1.0, SVG Export Plug-In  -->
<!DOCTYPE svg PUBLIC "-//W3C//DTD SVG 1.1//EN" "http://www.w3.org/Graphics/SVG/1.1/DTD/svg11.dtd" [
	<!ENTITY ns_flows "http://ns.adobe.com/Flows/1.0/">
]>
<svg version="1.1"
	 xmlns="http://www.w3.org/2000/svg" xmlns:xlink="http://www.w3.org/1999/xlink" xmlns:a="http://ns.adobe.com/AdobeSVGViewerExtensions/3.0/"
	 x="0px" y="0px" width="32px" height="32px" viewBox="0 -8 32 32" overflow="visible" enable-background="new 0 -8 32 32"
	 xml:space="preserve">
<defs>
</defs>
<path id="arrow-right_1_" d="M31.707,7.293l-7-7C24.516,0.102,24.26,0,24,0c-0.129,0-0.26,0.024-0.383,0.076
	C23.244,0.23,23,0.596,23,1v5H1C0.447,6,0,6.447,0,7v2c0,0.553,0.447,1,1,1h22v5c0,0.404,0.244,0.77,0.617,0.924
	C23.74,15.977,23.871,16,24,16c0.26,0,0.516-0.102,0.707-0.293l7-7C32.098,8.316,32.098,7.684,31.707,7.293z"/>
</svg>
