<?xml version="1.0" encoding="utf-8"?>
<!-- Generator: Adobe Illustrator 15.1.0, SVG Export Plug-In  -->
<!DOCTYPE svg PUBLIC "-//W3C//DTD SVG 1.1//EN" "http://www.w3.org/Graphics/SVG/1.1/DTD/svg11.dtd" [
	<!ENTITY ns_flows "http://ns.adobe.com/Flows/1.0/">
]>
<svg version="1.1"
	 xmlns="http://www.w3.org/2000/svg" xmlns:xlink="http://www.w3.org/1999/xlink" xmlns:a="http://ns.adobe.com/AdobeSVGViewerExtensions/3.0/"
	 x="0px" y="0px" width="32px" height="32px" viewBox="-7 0 32 32" overflow="visible" enable-background="new -7 0 32 32"
	 xml:space="preserve">
<defs>
</defs>
<path id="volume_1_" d="M16.766,0.152C16.518,0.051,16.258,0,16,0c-0.52,0-1.031,0.203-1.414,0.586L7,8H2c-1.104,0-2,0.895-2,2v12
	c0,1.105,0.896,2,2,2h5.035l7.551,7.414C14.969,31.797,15.48,32,16,32c0.258,0,0.518-0.051,0.766-0.152
	C17.512,31.539,18,30.809,18,30V2C18,1.191,17.512,0.461,16.766,0.152z"/>
</svg>
