<?xml version="1.0" encoding="utf-8"?>
<!-- Generator: Adobe Illustrator 15.1.0, SVG Export Plug-In  -->
<!DOCTYPE svg PUBLIC "-//W3C//DTD SVG 1.1//EN" "http://www.w3.org/Graphics/SVG/1.1/DTD/svg11.dtd" [
	<!ENTITY ns_flows "http://ns.adobe.com/Flows/1.0/">
]>
<svg version="1.1"
	 xmlns="http://www.w3.org/2000/svg" xmlns:xlink="http://www.w3.org/1999/xlink" xmlns:a="http://ns.adobe.com/AdobeSVGViewerExtensions/3.0/"
	 x="0px" y="0px" width="32px" height="32px" viewBox="-1 0 32 32" overflow="visible" enable-background="new -1 0 32 32"
	 xml:space="preserve">
<defs>
</defs>
<path d="M12.099,25.69c0.192,0.199,0.452,0.311,0.725,0.311s0.533-0.111,0.725-0.311l10.149-10.493
	c0.192-0.198,0.301-0.468,0.301-0.749c0-0.282-0.108-0.551-0.301-0.75l-1.347-1.387c-0.2-0.207-0.462-0.311-0.725-0.311
	s-0.524,0.104-0.725,0.311l-8.078,7.992l-3.376-3.697c-0.2-0.207-0.462-0.311-0.725-0.311s-0.524,0.104-0.725,0.311l-1.699,1.589
	c-0.4,0.414-0.4,1.085,0,1.499L12.099,25.69z"/>
<path d="M30,6c0-1.104-0.896-2-2.001-2H26h-0.001h-0.002V2.001c0-1.104-0.896-2-2-2h-2c-1.104,0-2,0.896-2,2V4H9.998H9.997V2
	c0-1.104-0.896-2-2-2h-2c-1.104,0-2,0.896-2,2v2H1.998C0.894,4,0,4.896,0,6v24c0,1.104,0.894,2.001,1.998,2.001h26.001
	C29.104,32.001,30,31.104,30,30V6z M25.999,28.001h-22v-18h22V28.001z M8,5.5C8,5.776,7.776,6,7.5,6h-1C6.224,6,6,5.776,6,5.5v-3
	C6,2.224,6.224,2,6.5,2h1C7.776,2,8,2.224,8,2.5V5.5z M24,5.5C24,5.776,23.776,6,23.5,6h-1C22.224,6,22,5.776,22,5.5v-3
	C22,2.224,22.224,2,22.5,2h1C23.776,2,24,2.224,24,2.5V5.5z"/>
</svg>
