<?xml version="1.0" encoding="utf-8"?>
<!-- Generator: Adobe Illustrator 15.1.0, SVG Export Plug-In  -->
<!DOCTYPE svg PUBLIC "-//W3C//DTD SVG 1.1//EN" "http://www.w3.org/Graphics/SVG/1.1/DTD/svg11.dtd" [
	<!ENTITY ns_flows "http://ns.adobe.com/Flows/1.0/">
]>
<svg version="1.1"
	 xmlns="http://www.w3.org/2000/svg" xmlns:xlink="http://www.w3.org/1999/xlink" xmlns:a="http://ns.adobe.com/AdobeSVGViewerExtensions/3.0/"
	 x="0px" y="0px" width="32px" height="32px" viewBox="0 -2.003 32 32" overflow="visible" enable-background="new 0 -2.003 32 32"
	 xml:space="preserve">
<defs>
</defs>
<path id="map_1_" d="M32,1.997c0-1.147-0.367-1.405-0.938-1.804C30.531-0.12,29.547,0,29.125,0.178
	C26.336,1.352,23.791,2.832,21,4.005c-2.842-1.174-5.93-2.653-8.771-3.827c-0.322-0.135-0.637-0.18-0.939-0.172
	C11-0.001,10.695,0.043,10.385,0.178c-3.111,1.334-6.221,2.666-9.334,4C0.232,4.528,0,4.988,0,5.997s0,19,0,20
	s0.699,1.648,1.426,1.84c0.488,0.201,1.055,0.23,1.645-0.021c2.809-1.205,5.119-2.303,7.93-3.506
	c2.809,1.203,6.121,2.301,8.93,3.506c0.004,0.002,0.008,0.002,0.012,0.002c0.258,0.111,0.535,0.18,0.832,0.176
	c0.297,0.004,0.574-0.064,0.832-0.176c0.004,0,0.008,0,0.012-0.002c3.109-1.334,6.219-2.666,9.332-4
	c0.82-0.35,1.053-0.818,1.051-1.818C32,20.997,32,9.997,32,1.997z M4,7.233c2-0.857,4-1.713,6-2.572v15.867
	c-2,0.855-4,1.611-6,2.469C4,16.375,4,13.856,4,7.233z M12,20.231V4.403c2.605,1.076,7.938,3.246,8,3.266v16.328
	C17.539,22.94,12.203,20.254,12,20.231z M22,23.997V7.495c2-0.842,4-1.682,6-2.525c0,6.598,0,9.432,0,16.027
	C26,21.854,24,23.137,22,23.997z"/>
</svg>
