<?xml version="1.0" encoding="utf-8"?>
<!-- Generator: Adobe Illustrator 15.1.0, SVG Export Plug-In  -->
<!DOCTYPE svg PUBLIC "-//W3C//DTD SVG 1.1//EN" "http://www.w3.org/Graphics/SVG/1.1/DTD/svg11.dtd" [
	<!ENTITY ns_flows "http://ns.adobe.com/Flows/1.0/">
]>
<svg version="1.1"
	 xmlns="http://www.w3.org/2000/svg" xmlns:xlink="http://www.w3.org/1999/xlink" xmlns:a="http://ns.adobe.com/AdobeSVGViewerExtensions/3.0/"
	 x="0px" y="0px" width="32px" height="32px" viewBox="-1 -0.001 32 32"
	 overflow="visible" enable-background="new -1 -0.001 32 32" xml:space="preserve">
<defs>
</defs>
<path id="melody_1_" d="M28.156,0.03L7.848,3.999C6.828,4.19,6,4.894,6,5.999v16.102c-0.324-0.066-0.656-0.102-1-0.102
	c-2.762,0-5,2.238-5,5s2.238,5,5,5s5-2.238,5-5V12.761l16-3.055v8.656c-0.324-0.062-0.656-0.098-1-0.098c-2.762,0-5,2.238-5,5
	s2.238,5,5,5s5-2.238,5-5V1.999C30.031,0.593,29.176-0.165,28.156,0.03z"/>
</svg>
