<?xml version="1.0" standalone="no"?>
<!DOCTYPE svg PUBLIC "-//W3C//DTD SVG 1.1//EN" "http://www.w3.org/Graphics/SVG/1.1/DTD/svg11.dtd" >
<svg viewBox="0 -32 512 512">
  <g transform="matrix(1 0 0 -1 0 480)">
   <path fill="currentColor"
d="M467 396q-43 43 -104.5 44t-106.5 -40q-45 41 -106.5 40t-104.5 -44q-45 -45 -45 -107.5t45 -107.5q176 -175 177 -175q14 -14 34 -14t34 14q175 173 177 175q45 45 45 107.5t-45 107.5zM444 204l-177 -175q-11 -12 -22 0l-177 175q-36 35 -36 84.5t36 84.5q34 34 82 35
t84 -31l22 -20l22 20q36 32 84 31t82 -35q36 -35 36 -84.5t-36 -84.5zM148 360q8 0 8 -8t-8 -8q-21 0 -36.5 -15t-15.5 -37q0 -8 -8 -8t-8 8q0 28 20 48t48 20z" />
  </g>

</svg>
