<?xml version="1.0" standalone="no"?>
<!DOCTYPE svg PUBLIC "-//W3C//DTD SVG 1.1//EN" "http://www.w3.org/Graphics/SVG/1.1/DTD/svg11.dtd" >
<svg viewBox="0 -32 512 512">
  <g transform="matrix(1 0 0 -1 0 480)">
   <path fill="currentColor"
d="M415 270q-6 55 -46.5 92.5t-96.5 37.5q-43 0 -78 -23t-52 -61q-12 4 -22 4q-30 0 -51 -21t-21 -51q0 -11 4 -22q-24 -14 -38 -38t-14 -52q0 -43 30.5 -73.5t73.5 -30.5h288q50 0 85 35t35 85q0 44 -27.5 77t-69.5 41zM392 64h-288q-30 0 -51 21t-21 51q0 41 36 62
q17 9 19 15t-5 23q-2 7 -2 12q0 17 11.5 28.5t28.5 11.5q11 1 22 -4q7 -2 11 -3t7.5 3t4.5 6.5t6 12.5q13 30 41 47.5t60 17.5q43 0 75 -29t36 -72q1 -18 4.5 -21.5t21.5 -7.5q31 -6 51 -30t20 -56q0 -36 -26 -62t-62 -26z" />
  </g>

</svg>
