<?xml version="1.0" standalone="no"?>
<!DOCTYPE svg PUBLIC "-//W3C//DTD SVG 1.1//EN" "http://www.w3.org/Graphics/SVG/1.1/DTD/svg11.dtd" >
<svg viewBox="0 -32 513 512">
  <g transform="matrix(1 0 0 -1 0 480)">
   <path fill="currentColor"
d="M355 342q-66 13 -131 13t-131 -13q-9 -2 -12 -11q-34 -105 0 -211q3 -9 12 -11q66 -13 131 -13t131 13q9 2 12 11q17 53 17 106t-17 105q-3 9 -12 11zM352 125q-128 -26 -255 0q-33 101 0 201q127 27 255 0q33 -100 0 -201zM494 379q-5 22 -28 24q-105 13 -210 13
t-210 -13q-22 -2 -27 -24q-37 -155 0 -310q5 -22 27 -24q48 -6 101 -9q-3 -2 -3 -4q0 -7 33 -11.5t79 -4.5t79 4.5t33 11.5q0 2 -3 4q53 3 101 9q22 2 28 24q37 155 0 310zM463 77q-207 -26 -413 0q-35 147 0 294q206 26 413 0q35 -147 0 -294zM424 288q10 0 17 7t7 17
t-7 17t-17 7t-17 -7t-7 -17t7 -17t17 -7zM424 320q8 0 8 -8t-8 -8t-8 8t8 8zM440 128q8 0 8 -8t-8 -8h-48q-8 0 -8 8t8 8h48zM456 176q8 0 8 -8t-8 -8h-48q-8 0 -8 8t8 8h48zM456 224q8 0 8 -8t-8 -8h-48q-8 0 -8 8t8 8h48zM216 291q8 0 8 -8t-8 -8l-60 -4q-8 -1 -9 -9
l-3 -30q0 -8 -8 -8t-7 8l4 45q2 7 10 8z" />
  </g>

</svg>
