<?xml version="1.0" standalone="no"?>
<!DOCTYPE svg PUBLIC "-//W3C//DTD SVG 1.1//EN" "http://www.w3.org/Graphics/SVG/1.1/DTD/svg11.dtd" >
<svg viewBox="0 -32 513 512">
  <g transform="matrix(1 0 0 -1 0 480)">
   <path fill="currentColor"
d="M432 256q0 60 -42 102t-102 42q-8 0 -8 8t8 8q66 0 113 -47t47 -113q0 -8 -8 -8t-8 8zM146 466q-14 14 -34 14q-10 0 -18 -4q-14 -5 -22 -17t-8 -27v-220l-50 -50q-14 -14 -14 -34t14 -34l112 -112q14 -14 34 -14t34 14l50 50h220q15 0 27 8t17 22q13 29 -10 52zM221 55
l-50 -50q-4 -5 -11 -5t-11 5l-112 112q-5 4 -5 11t5 11l50 50v1l135 -135h-1zM244 64q-1 0 -7 -1l-142 142q1 6 1 7v193l341 -341h-193zM479 74q-4 -10 -15 -10h-5l-363 363v5q0 11 10 15q3 1 6 1q7 0 11 -5l352 -352q8 -7 4 -17zM288 448q-7 0 -11.5 4.5t-4.5 11.5
t4.5 11.5t11.5 4.5q93 0 158.5 -65.5t65.5 -158.5q0 -7 -4.5 -11.5t-11.5 -4.5t-11.5 4.5t-4.5 11.5q0 79 -56.5 135.5t-135.5 56.5z" />
  </g>

</svg>
