<?xml version="1.0" standalone="no"?>
<!DOCTYPE svg PUBLIC "-//W3C//DTD SVG 1.1//EN" "http://www.w3.org/Graphics/SVG/1.1/DTD/svg11.dtd" >
<svg viewBox="0 -32 512 512">
  <g transform="matrix(1 0 0 -1 0 480)">
   <path fill="currentColor"
d="M480 371q-1 19 -15 32t-33 13h-48v16q0 20 -14 34t-34 14h-160q-20 0 -34 -14t-14 -34v-16h-48q-19 0 -33 -13t-15 -32v-19v-16q0 -13 9.5 -22.5t22.5 -9.5v-272q0 -27 18.5 -45.5t45.5 -18.5h256q27 0 45.5 18.5t18.5 45.5v272q13 0 22.5 9.5t9.5 22.5v16v19zM160 432
q0 7 4.5 11.5t11.5 4.5h160q7 0 11.5 -4.5t4.5 -11.5v-16h-192v16zM416 32q0 -13 -9.5 -22.5t-22.5 -9.5h-256q-13 0 -22.5 9.5t-9.5 22.5v272h320v-272zM448 352v-16h-384v16v16q0 7 4.5 11.5t11.5 4.5h352q7 0 11.5 -4.5t4.5 -11.5v-16zM144 32h32q7 0 11.5 4.5t4.5 11.5
v208q0 7 -4.5 11.5t-11.5 4.5h-32q-7 0 -11.5 -4.5t-4.5 -11.5v-208q0 -7 4.5 -11.5t11.5 -4.5zM144 256h32v-208h-32v208zM240 32h32q7 0 11.5 4.5t4.5 11.5v208q0 7 -4.5 11.5t-11.5 4.5h-32q-7 0 -11.5 -4.5t-4.5 -11.5v-208q0 -7 4.5 -11.5t11.5 -4.5zM240 256h32v-208
h-32v208zM336 32h32q7 0 11.5 4.5t4.5 11.5v208q0 7 -4.5 11.5t-11.5 4.5h-32q-7 0 -11.5 -4.5t-4.5 -11.5v-208q0 -7 4.5 -11.5t11.5 -4.5zM336 256h32v-208h-32v208z" />
  </g>

</svg>
