<?xml version="1.0" standalone="no"?>
<!DOCTYPE svg PUBLIC "-//W3C//DTD SVG 1.1//EN" "http://www.w3.org/Graphics/SVG/1.1/DTD/svg11.dtd" >
<svg viewBox="-1 -32 513 512">
  <g transform="matrix(1 0 0 -1 0 480)">
   <path fill="currentColor"
d="M498 27q-61 40 -149 59q43 54 61 131q5 28 5.5 62.5t-11.5 76t-34 70.5q-43 54 -114 54t-114 -54q-22 -29 -34 -70.5t-11.5 -76t5.5 -62.5q18 -77 61 -131q-88 -19 -149 -59q-20 -14 -13 -36q3 -10 11.5 -16.5t19.5 -6.5h448q24 0 31 22.5t-13 36.5zM324 106l-5 -7
q-29 -33 -63 -33t-63 33l-5 7q-34 42 -49 95.5t-8 106.5q7 58 39 99t86 41t86 -41t39 -99q7 -53 -8 -106.5t-49 -95.5zM32 0q55 37 137 55l40 8q23 -15 47 -15t47 15l40 -8q81 -18 137 -55h-448z" />
  </g>

</svg>
