<?xml version="1.0" standalone="no"?>
<!DOCTYPE svg PUBLIC "-//W3C//DTD SVG 1.1//EN" "http://www.w3.org/Graphics/SVG/1.1/DTD/svg11.dtd" >
<svg viewBox="0 -32 512 512">
  <g transform="matrix(1 0 0 -1 0 480)">
   <path fill="currentColor"
d="M352 480q-66 0 -113 -47t-47 -113q0 -29 11 -58l-194 -194q-9 -10 -9 -20v-48q0 -13 9.5 -22.5t22.5 -9.5h48q11 0 20 9l23 23h37q13 0 22.5 9.5t9.5 22.5v32h32q13 0 22.5 9.5t9.5 22.5v38l38 37q29 -11 58 -11q66 0 113 47t47 113t-47 113t-113 47zM352 192
q-34 0 -65 18l-5 -5l-18 -18l-31 -31q-9 -9 -9 -22v-38h-32q-13 0 -22.5 -9.5t-9.5 -22.5v-32h-37q-14 0 -23 -9l-23 -23h-45v46l187 186l23 23q-18 31 -18 65q0 53 37.5 90.5t90.5 37.5t90.5 -37.5t37.5 -90.5t-37.5 -90.5t-90.5 -37.5zM445 348q-27 38 -65 65q-6 5 -14 2
q-33 -12 -45 -45q-1 -3 -1 -5q0 -5 3 -9q27 -38 65 -65q6 -5 14 -2q33 12 45 45q1 3 1 5q0 5 -3 9zM397 304q-35 25 -61 61q9 26 35 35q36 -26 61 -61q-9 -26 -35 -35z" />
  </g>

</svg>
