<?xml version="1.0" standalone="no"?>
<!DOCTYPE svg PUBLIC "-//W3C//DTD SVG 1.1//EN" "http://www.w3.org/Graphics/SVG/1.1/DTD/svg11.dtd" >
<svg viewBox="0 -32 512 512">
  <g transform="matrix(1 0 0 -1 0 480)">
   <path fill="currentColor"
d="M320 480q-80 0 -136 -56.5t-56 -135.5q0 -48 22 -90l-133 -133q-17 -17 -17 -41q0 -23 16.5 -39.5t39.5 -16.5q24 0 41 17l133 133q42 -22 90 -22q80 0 136 56t56 135.5t-56 136t-136 56.5zM77 5q-9 -9 -20.5 -9t-20 8.5t-8.5 20t9 20.5l129 129q17 -23 40 -40zM320 128
q-66 0 -113 47t-47 113t47 113t113 47t113 -47t47 -113t-47 -113t-113 -47zM320 400q8 0 8 -8t-8 -8q-40 0 -68 -28t-28 -68q0 -8 -8 -8t-8 8q0 46 33 79t79 33z" />
  </g>

</svg>
