<?xml version="1.0" standalone="no"?>
<!DOCTYPE svg PUBLIC "-//W3C//DTD SVG 1.1//EN" "http://www.w3.org/Graphics/SVG/1.1/DTD/svg11.dtd" >
<svg viewBox="0 -32 512 512">
  <g transform="matrix(1 0 0 -1 0 480)">
   <path fill="currentColor"
d="M486 277l-49 10q-3 10 -8 21l27 41q7 10 6 21.5t-10 19.5l-30 30q-10 10 -23 10q-10 0 -18 -6l-41 -27q-11 5 -21 8l-10 49q-2 11 -11 18.5t-20 7.5h-44q-11 0 -20 -7.5t-11 -18.5l-10 -49q-10 -3 -21 -8l-41 27q-8 6 -18 6q-13 0 -23 -10l-30 -30q-8 -8 -9.5 -19.5
t5.5 -21.5l27 -41q-5 -11 -8 -21l-49 -10q-11 -2 -18.5 -11t-7.5 -20v-44q0 -11 7.5 -20t18.5 -11l49 -10q3 -10 8 -21l-27 -41q-7 -10 -5.5 -21.5t9.5 -19.5l30 -30q10 -10 23 -10q10 0 18 6l41 27q11 -5 21 -8l10 -49q2 -12 11 -19t20 -7h44q11 0 20 7.5t11 18.5l10 49
q10 3 21 8l41 -27q8 -6 18 -6q13 0 23 10l30 30q9 8 10 19.5t-6 21.5l-27 41q5 11 8 21l49 10q11 2 18.5 11t7.5 20v44q0 11 -7.5 20t-18.5 11zM431 192q-18 -3 -24 -20q-3 -9 -7 -18q-8 -16 2 -31l28 -42l-31 -31l-42 28q-8 5 -17 5q-8 0 -14 -3q-9 -4 -18 -7
q-17 -6 -20 -24l-10 -49h-44l-10 49q-3 18 -20 24q-9 3 -18 7q-6 3 -14 3q-9 0 -17 -5l-42 -28l-31 31l28 42q10 15 2 31q-4 9 -7 18q-6 17 -24 20l-49 10v44l49 10q18 3 24 20q3 9 7 18q8 16 -2 31l-28 42l31 31l42 -28q8 -5 17 -5q8 0 14 3q9 4 18 7q17 6 20 24l10 49h44
l10 -49q3 -18 20 -24q9 -3 18 -7q6 -3 14 -3q9 0 17 5l42 28l31 -31l-28 -42q-10 -15 -2 -31q4 -9 7 -18q6 -17 24 -20l49 -10v-44zM256 336q-46 0 -79 -33t-33 -79t33 -79t79 -33t79 33t33 79t-33 79t-79 33zM256 126q-41 0 -69.5 28.5t-28.5 69.5t28.5 69.5t69.5 28.5
t69.5 -28.5t28.5 -69.5t-28.5 -69.5t-69.5 -28.5zM256 288q-27 0 -45.5 -18.5t-18.5 -45.5t18.5 -45.5t45.5 -18.5t45.5 18.5t18.5 45t-18.5 45.5t-45.5 19zM256 176q-20 0 -34 14t-14 34t14 34t34 14t34 -14t14 -34t-14 -34t-34 -14z" />
  </g>

</svg>
