<?xml version="1.0" standalone="no"?>
<!DOCTYPE svg PUBLIC "-//W3C//DTD SVG 1.1//EN" "http://www.w3.org/Graphics/SVG/1.1/DTD/svg11.dtd" >
<svg viewBox="0 -32 512 512">
  <g transform="matrix(1 0 0 -1 0 480)">
   <path fill="currentColor"
d="M256 320q-53 0 -90.5 -37.5t-37.5 -90.5t37.5 -90.5t90.5 -37.5t90.5 37.5t37.5 90.5t-37.5 90.5t-90.5 37.5zM329 129.5q-26 -30.5 -65.5 -33.5t-70 23t-33.5 65.5t23 70t65.5 33.5t70 -23t33.5 -65.5t-23 -70zM256 256q8 0 8 -8t-8 -8q-20 0 -34 -14t-14 -34
q0 -8 -8 -8t-8 8q0 26 18.5 45t45.5 19zM472 335l-69 12l-22 55q-6 14 -18 22t-27 8h-160q-15 0 -27 -8t-18 -22l-22 -55l-69 -12q-17 -3 -28.5 -16t-11.5 -31v-240q0 -20 14 -34t34 -14h416q20 0 34 14t14 34v240q0 18 -11.5 31t-28.5 16zM480 48q0 -7 -4.5 -11.5
t-11.5 -4.5h-416q-7 0 -11.5 4.5t-4.5 11.5v240q0 14 13 16l87 14l29 72q4 10 15 10h160q11 0 15 -10l29 -72l87 -14q13 -2 13 -16v-240z" />
  </g>

</svg>
