<?xml version="1.0" standalone="no"?>
<!DOCTYPE svg PUBLIC "-//W3C//DTD SVG 1.1//EN" "http://www.w3.org/Graphics/SVG/1.1/DTD/svg11.dtd" >
<svg viewBox="0 -32 513 512">
  <g transform="matrix(1 0 0 -1 0 480)">
   <path fill="currentColor"
d="M502 258l-80 128q-19 30 -54 30h-304q-27 0 -45.5 -19t-18.5 -45v-256q0 -27 18.5 -45.5t45.5 -18.5h304q35 0 54 30l80 128q22 34 0 68zM475 207l-80 -128q-9 -15 -27 -15h-304q-13 0 -22.5 9.5t-9.5 22.5v256q0 13 9.5 22.5t22.5 9.5h304q18 0 27 -15l80 -128
q11 -17 0 -34zM368 272q-20 0 -34 -14t-14 -34t14 -34t34 -14t34 14t14 34t-14 34t-34 14zM368 192q-13 0 -22.5 9.5t-9.5 22.5t9.5 22.5t22.5 9.5t22.5 -9.5t9.5 -22.5t-9.5 -22.5t-22.5 -9.5z" />
  </g>

</svg>
