<?xml version="1.0" standalone="no"?>
<!DOCTYPE svg PUBLIC "-//W3C//DTD SVG 1.1//EN" "http://www.w3.org/Graphics/SVG/1.1/DTD/svg11.dtd" >
<svg viewBox="0 -32 512 512">
  <g transform="matrix(1 0 0 -1 0 480)">
   <path fill="currentColor"
d="M400 272v64q0 60 -42 102t-102 42t-102 -42t-42 -102v-64q-20 0 -34 -14t-14 -34v-48v-16v-32v-16q0 -60 42 -102t102 -42h96q60 0 102 42t42 102v16v32v16v48q0 20 -14 34t-34 14zM144 336q0 46 33 79t79 33t79 -33t33 -79v-64h-32v64q0 33 -23.5 56.5t-56.5 23.5
t-56.5 -23.5t-23.5 -56.5v-64h-32v64zM320 336v-64h-128v64q0 27 18.5 45.5t45.5 18.5t45.5 -18.5t18.5 -45.5zM416 176v-16v-32v-16q0 -46 -33 -79t-79 -33h-96q-46 0 -79 33t-33 79v16v32v16v48q0 7 4.5 11.5t11.5 4.5h32h224h32q7 0 11.5 -4.5t4.5 -11.5v-48zM256 176
q13 0 22.5 -9.5t9.5 -22.5q0 -14 -11 -43q-7 -21 -21 -21t-21 21q-11 29 -11 43q0 13 9.5 22.5t22.5 9.5z" />
  </g>

</svg>
