<?xml version="1.0" standalone="no"?>
<!DOCTYPE svg PUBLIC "-//W3C//DTD SVG 1.1//EN" "http://www.w3.org/Graphics/SVG/1.1/DTD/svg11.dtd" >
<svg viewBox="0 -32 512 512">
  <g transform="matrix(1 0 0 -1 0 480)">
   <path fill="currentColor"
d="M256 480q-73 0 -124.5 -51.5t-51.5 -124.5q0 -28 15 -62t36.5 -71.5t28.5 -59.5q8 -20 16 -48.5t13 -41.5t13.5 -27.5t21 -20t32.5 -5.5t32.5 5.5t21.5 20t13.5 27.5t12.5 41.5t16 48.5q7 21 28.5 59t36.5 72t15 62q0 73 -51.5 124.5t-124.5 51.5zM297 45l-79 -10
q-4 13 -9 31h-1l99 12q0 -1 -1.5 -6t-2.5 -8q-3 -11 -6 -19zM204 81q-4 14 -10 31h124q-4 -11 -5 -17zM256 0q-13 0 -19.5 3.5t-12.5 16.5l68 8q-7 -18 -14 -23t-22 -5zM331 144h-150q-8 18 -27 51q-42 76 -42 109q0 60 42 102t102 42t102 -42t42 -102q0 -32 -42 -109
q-19 -33 -27 -51zM256 400q8 0 8 -8t-8 -8q-33 0 -56.5 -23.5t-23.5 -56.5q0 -8 -8 -8t-8 8q0 40 28 68t68 28z" />
  </g>

</svg>
