<?xml version="1.0" standalone="no"?>
<!DOCTYPE svg PUBLIC "-//W3C//DTD SVG 1.1//EN" "http://www.w3.org/Graphics/SVG/1.1/DTD/svg11.dtd" >
<svg viewBox="0 -32 512 512">
  <g transform="matrix(1 0 0 -1 0 480)">
   <path fill="currentColor"
d="M470 439q-41 41 -95 41q-44 0 -75 -30l-77 -78l-1 -1v-1l-166 -166q-11 -11 -16 -27l-38 -137v-1t-0.5 -3t-0.5 -4t-0.5 -4t-0.5 -4q0 -23 16.5 -39.5t39.5 -16.5q2 0 4.5 0.5t5 0.5t4.5 0.5t3.5 1l1.5 0.5l135 36q16 4 28 16l244 246q33 33 29.5 82.5t-41.5 87.5z
M256 99q-2 21 -11 42l151 152q15 -49 -16 -80v-1l-124 -125v12zM237 156q-10 17 -21 28q-14 13 -33 23l152 153q19 -8 34 -23q12 -12 20 -28zM168 215q-23 9 -46 10l123 124q29 28 74 17zM67 2q-8 -2 -11 -2q-10 0 -17 7t-7 17q0 2 2 9l16 61q31 1 54 -22q24 -24 22 -54z
M142 22q-1 35 -27 61t-60 27l16 58q2 6 6 11q24 17 57 12t59 -30q27 -27 31 -62t-17 -59l-6 -3zM459 292l-27 -28v6v5q-4 48 -40 85q-41 41 -95 41l26 26q21 21 52 21q41 0 73 -32q29 -29 32 -67q2 -34 -21 -57z" />
  </g>

</svg>
