<?xml version="1.0" standalone="no"?>
<!DOCTYPE svg PUBLIC "-//W3C//DTD SVG 1.1//EN" "http://www.w3.org/Graphics/SVG/1.1/DTD/svg11.dtd" >
<svg viewBox="0 -32 512 512">
  <g transform="matrix(1 0 0 -1 0 480)">
   <path fill="currentColor"
d="M432 400h-352q-7 0 -11.5 -4.5t-4.5 -11.5v-224q0 -7 4.5 -11.5t11.5 -4.5h352q7 0 11.5 4.5t4.5 11.5v224q0 7 -4.5 11.5t-11.5 4.5zM432 160h-352v224h352v-224zM464 464h-416q-20 0 -34 -14t-14 -34v-320q0 -20 14 -34t34 -14h160v-19l-100 -13q-12 -3 -12 -16
q0 -7 4.5 -11.5t11.5 -4.5h288q7 0 11.5 4.5t4.5 11.5q0 13 -12 16l-100 13v19h160q20 0 34 14t14 34v320q0 20 -14 34t-34 14zM480 96q0 -7 -4.5 -11.5t-11.5 -4.5h-144h-128h-144q-7 0 -11.5 4.5t-4.5 11.5v320q0 7 4.5 11.5t11.5 4.5h416q7 0 11.5 -4.5t4.5 -11.5v-320z
" />
  </g>

</svg>
