<?xml version="1.0" standalone="no"?>
<!DOCTYPE svg PUBLIC "-//W3C//DTD SVG 1.1//EN" "http://www.w3.org/Graphics/SVG/1.1/DTD/svg11.dtd" >
<svg viewBox="0 -32 512 512">
  <g transform="matrix(1 0 0 -1 0 480)">
   <path fill="currentColor"
d="M256 196q40 0 68 28t28 68t-28 68t-68 28t-68 -28t-28 -68t28 -68t68 -28zM256 372q33 0 56.5 -23.5t23.5 -56.5t-23.5 -56.5t-56.5 -23.5t-56.5 23.5t-23.5 56.5t23.5 56.5t56.5 23.5zM256 480q-80 0 -136 -56t-56 -136q0 -40 14.5 -82t43.5 -85t51.5 -72t56.5 -68
q10 -13 25 -13h2q15 0 25 13q34 39 56.5 68t51.5 72t43.5 85t14.5 82q0 80 -56 136t-136 56zM258 2l-2 -2q0 1 -1 2h-1q-32 37 -51.5 61t-48.5 66t-43.5 82t-14.5 77q0 66 47 113t113 47t113 -47t47 -113q0 -37 -14.5 -77t-44 -82t-48.5 -66t-51 -61z" />
  </g>

</svg>
