<?xml version="1.0" standalone="no"?>
<!DOCTYPE svg PUBLIC "-//W3C//DTD SVG 1.1//EN" "http://www.w3.org/Graphics/SVG/1.1/DTD/svg11.dtd" >
<svg viewBox="0 -32 512 512">
  <g transform="matrix(1 0 0 -1 0 480)">
   <path fill="currentColor"
d="M511 228v0.5v1.5v0l-0.5 0.5l-0.5 0.5q-35 68 -105 110.5t-149 42.5t-148.5 -42.5t-105.5 -109.5v-1v-1v0q-1 -1 -1 -1.5v-0.5v-4v-3v-1.5t1 -1.5v0v-1q36 -68 105.5 -110.5t148.5 -42.5t149 42.5t105 110.5l0.5 0.5l0.5 0.5v0v1.5v0.5q1 3 1 4t-1 4zM256.5 96
q-67.5 0 -128 35t-93.5 93q33 58 93.5 93t128 35t128 -35t93.5 -93q-33 -58 -93.5 -93t-128 -35zM256 288q8 0 8 -8t-8 -8q-19 0 -33.5 -14t-14.5 -34q0 -8 -8 -8t-8 8q0 27 19 45.5t45 18.5zM256 336q-46 0 -79 -33t-33 -79t33 -79t79 -33t79 33t33 79t-33 79t-79 33z
M256 128q-40 0 -68 28t-28 68t28 68t68 28t68 -28t28 -68t-28 -68t-68 -28z" />
  </g>

</svg>
