<?xml version="1.0" standalone="no"?>
<!DOCTYPE svg PUBLIC "-//W3C//DTD SVG 1.1//EN" "http://www.w3.org/Graphics/SVG/1.1/DTD/svg11.dtd" >
<svg viewBox="0 -32 512 512">
  <g transform="matrix(1 0 0 -1 0 480)">
   <path fill="currentColor"
d="M256 368q8 0 8 -8t-8 -8q-64 0 -112 -29t-48 -67q0 -8 -8 -8t-8 8q0 46 52 79t124 33zM256 448q-106 0 -181 -56t-75 -136q0 -49 30 -90.5t82 -68.5v-1q0 -8 -2 -16.5t-6.5 -18.5t-7 -15t-9 -15t-6.5 -11q-1 -3 -1 -6q0 -6 4 -10t10 -4h5q32 6 62.5 28t45.5 40
q25 -4 49 -4q106 0 181 56t75 136t-75 136t-181 56zM256 96q-22 0 -45 3q-2 1 -4 1q-16 0 -25 -12q-18 -22 -49 -41q11 26 11 47v3q0 20 -17 29q-45 22 -70 57t-25 73q0 66 65.5 113t158.5 47t158.5 -47t65.5 -113t-65.5 -113t-158.5 -47z" />
  </g>

</svg>
