<?xml version="1.0" standalone="no"?>
<!DOCTYPE svg PUBLIC "-//W3C//DTD SVG 1.1//EN" "http://www.w3.org/Graphics/SVG/1.1/DTD/svg11.dtd" >
<svg viewBox="0 -32 512 512">
  <g transform="matrix(1 0 0 -1 0 480)">
   <path fill="currentColor"
d="M511 185l-64 240q-3 10 -11.5 16.5t-19.5 6.5h-160h-160q-11 0 -19.5 -6.5t-11.5 -16.5l-64 -240q-1 -5 -1 -9v-112q0 -27 18.5 -45.5t45.5 -18.5h384q27 0 45.5 18.5t18.5 45.5v112q0 4 -1 9zM480 64q0 -13 -9.5 -22.5t-22.5 -9.5h-384q-13 0 -22.5 9.5t-9.5 22.5v112
l64 240h320l64 -240v-112zM380 384h-248q-12 0 -15 -12l-55 -192q-2 -8 2.5 -14t12.5 -6h46h19h8l23 -46q9 -18 29 -18h108q20 0 29 18l23 46h8h18h47q8 0 12.5 6t2.5 14l-55 192q-3 12 -15 12zM388 192h-26q-20 0 -29 -18l-23 -46h-108l-23 46q-9 18 -29 18h-26h-39l47 176
h248l47 -176h-39z" />
  </g>

</svg>
