<?xml version="1.0" standalone="no"?>
<!DOCTYPE svg PUBLIC "-//W3C//DTD SVG 1.1//EN" "http://www.w3.org/Graphics/SVG/1.1/DTD/svg11.dtd" >
<svg viewBox="0 -32 512 512">
  <g transform="matrix(1 0 0 -1 0 480)">
   <path fill="currentColor"
d="M384 480h-256q-20 0 -34 -14t-14 -34v-416q0 -20 14 -34t34 -14h256q20 0 34 14t14 34v416q0 20 -14 34t-34 14zM400 16q0 -7 -4.5 -11.5t-11.5 -4.5h-256q-7 0 -11.5 4.5t-4.5 11.5v32h288v-32zM400 64h-288v320h288v-320zM400 400h-288v32q0 7 4.5 11.5t11.5 4.5h256
q7 0 11.5 -4.5t4.5 -11.5v-32zM288 424q0 -8 -8 -8h-48q-8 0 -8 8t8 8h48q8 0 8 -8zM272 24q0 -8 -8 -8h-16q-8 0 -8 8t8 8h16q8 0 8 -8z" />
  </g>

</svg>
