<?xml version="1.0" standalone="no"?>
<!DOCTYPE svg PUBLIC "-//W3C//DTD SVG 1.1//EN" "http://www.w3.org/Graphics/SVG/1.1/DTD/svg11.dtd" >
<svg viewBox="0 -32 512 512">
  <g transform="matrix(1 0 0 -1 0 480)">
   <path fill="currentColor"
d="M464 480h-352q-20 0 -34 -14t-14 -34v-32h-16q-20 0 -34 -14t-14 -34v-320q0 -27 18.5 -45.5t45.5 -18.5h384q27 0 45.5 18.5t18.5 45.5v400q0 20 -14 34t-34 14zM480 32q0 -13 -9.5 -22.5t-22.5 -9.5h-384q-13 0 -22.5 9.5t-9.5 22.5v320q0 7 4.5 11.5t11.5 4.5h16v-320
q0 -7 4.5 -11.5t11.5 -4.5t11.5 4.5t4.5 11.5v384q0 7 4.5 11.5t11.5 4.5h352q7 0 11.5 -4.5t4.5 -11.5v-400zM312 272q-8 0 -8 8t8 8h128q8 0 8 -8t-8 -8h-128zM312 320q-8 0 -8 8t8 8h128q8 0 8 -8t-8 -8h-128zM312 368q-8 0 -8 8t8 8h128q8 0 8 -8t-8 -8h-128zM264 48
q8 0 8 -8t-8 -8h-128q-8 0 -8 8t8 8h128zM264 96q8 0 8 -8t-8 -8h-128q-8 0 -8 8t8 8h128zM264 144q8 0 8 -8q0 -3 -2.5 -5.5t-5.5 -2.5h-128q-8 0 -8 8t8 8h128zM440 48q8 0 8 -8t-8 -8h-128q-8 0 -8 8t8 8h128zM440 96q8 0 8 -8t-8 -8h-128q-8 0 -8 8t8 8h128zM440 144
q8 0 8 -8q0 -3 -2.5 -5.5t-5.5 -2.5h-128q-8 0 -8 8t8 8h128zM440 240q8 0 8 -8t-8 -8h-304q-8 0 -8 8t8 8h304zM440 192q8 0 8 -8t-8 -8h-304q-8 0 -8 8t8 8h304zM144 272h112q7 0 11.5 4.5t4.5 11.5v112q0 7 -4.5 11.5t-11.5 4.5h-112q-7 0 -11.5 -4.5t-4.5 -11.5v-112
q0 -7 4.5 -11.5t11.5 -4.5zM160 384h80v-80h-80v80z" />
  </g>

</svg>
