<?xml version="1.0" standalone="no"?>
<!DOCTYPE svg PUBLIC "-//W3C//DTD SVG 1.1//EN" "http://www.w3.org/Graphics/SVG/1.1/DTD/svg11.dtd" >
<svg viewBox="0 -32 512 512">
  <g transform="matrix(1 0 0 -1 0 480)">
   <path fill="currentColor"
d="M467 312q-15 4 -136 7q4 19 4 53q0 42 -25 75t-54 33q-20 0 -34 -14t-14 -34q-1 -83 -64 -116q-11 -5 -17 -8l1 -1q-15 13 -32 13h-48q-20 0 -34 -14t-14 -34v-256q0 -20 14 -34t34 -14h48q29 0 43 28v-1h2.5t1.5 -1h1q18 -4 65 -15q48 -11 95 -11h88q40 0 57 31
q4 8 7 17q4 14 0 28q18 12 27 42q8 24 0 43q17 16 21 44q3 21 -6 38q13 15 14 35v4v8q0 16 -11.5 32t-33.5 22zM112 16q0 -7 -4.5 -11.5t-11.5 -4.5h-48q-7 0 -11.5 4.5t-4.5 11.5v256q0 7 4.5 11.5t11.5 4.5h48q7 0 11.5 -4.5t4.5 -11.5v-256zM480 247q-1 -23 -32 -23h-32
q-8 0 -8 -8t8 -8h31q16 0 21.5 -9.5t4.5 -20.5q-6 -34 -35 -34h-38q-8 0 -8 -8t8 -8h32q31 0 20 -33q-3 -11 -5.5 -15.5t-11.5 -10t-25 -5.5h-26q-8 0 -8 -8t8 -8h25q11 0 15 -8t1 -14q-1 -4 -4 -12q-8 -14 -29 -14h-88q-43 0 -88 10q-63 15 -74 18q-14 2 -14 14v221
q0 13 13 17l1 0.5t2 0.5q50 21 72.5 62.5t23.5 88.5q0 16 16 16q14 0 30.5 -23.5t16.5 -52.5q0 -28 -2.5 -41t-12.5 -43q150 0 173 -6q19 -5 19 -24v-11zM72 64q-10 0 -17 -7t-7 -17t7 -17t17 -7t17 7t7 17t-7 17t-17 7zM72 32q-8 0 -8 8t8 8t8 -8t-8 -8z" />
  </g>

</svg>
