<?xml version="1.0" standalone="no"?>
<!DOCTYPE svg PUBLIC "-//W3C//DTD SVG 1.1//EN" "http://www.w3.org/Graphics/SVG/1.1/DTD/svg11.dtd" >
<svg viewBox="0 -32 512 512">
  <g transform="matrix(1 0 0 -1 0 480)">
   <path fill="currentColor"
d="M432 480h-352q-27 0 -45.5 -18.5t-18.5 -45.5v-384q0 -27 18.5 -45.5t45.5 -18.5h352q27 0 45.5 18.5t18.5 45.5v384q0 27 -18.5 45.5t-45.5 18.5zM464 32q0 -13 -9.5 -22.5t-22.5 -9.5h-352q-13 0 -22.5 9.5t-9.5 22.5v384q0 13 9.5 22.5t22.5 9.5h352q13 0 22.5 -9.5
t9.5 -22.5v-384zM416 416h-320q-7 0 -11.5 -4.5t-4.5 -11.5v-288q0 -7 4.5 -11.5t11.5 -4.5h320q7 0 11.5 4.5t4.5 11.5v288q0 7 -4.5 11.5t-11.5 4.5zM416 400v-222l-52 57q-5 5 -12 5t-12 -5l-42 -48l-126 144q-5 5 -12 5t-12 -5l-52 -60v129h320zM96 246l64 74l129 -146
l9 -11l45 -51h-247v134zM364 112l-55 63l43 49l64 -70v-42h-52zM320 272q20 0 34 14t14 34t-14 34t-34 14t-34 -14t-14 -34t14 -34t34 -14zM320 352q13 0 22.5 -9.5t9.5 -22.5t-9.5 -22.5t-22.5 -9.5t-22.5 9.5t-9.5 22.5t9.5 22.5t22.5 9.5z" />
  </g>

</svg>
