<?xml version="1.0" standalone="no"?>
<!DOCTYPE svg PUBLIC "-//W3C//DTD SVG 1.1//EN" "http://www.w3.org/Graphics/SVG/1.1/DTD/svg11.dtd" >
<svg viewBox="0 -32 512 512">
  <g transform="matrix(1 0 0 -1 0 480)">
   <path fill="currentColor"
d="M503 359l-96 96q-10 9 -23 9h-336q-20 0 -34 -14t-14 -34v-384q0 -20 14 -34t34 -14h416q20 0 34 14t14 34v304q0 13 -9 23zM480 32q0 -7 -4.5 -11.5t-11.5 -4.5h-416q-7 0 -11.5 4.5t-4.5 11.5v384q0 7 4.5 11.5t11.5 4.5h320v-64q0 -20 14 -34t34 -14h16h48v-288z
M432 336h-16q-13 0 -22.5 9.5t-9.5 22.5v64l96 -96h-48zM248 352q-8 0 -8 8t8 8h80q8 0 8 -8t-8 -8h-80zM248 304q-8 0 -8 8t8 8h80q8 0 8 -8t-8 -8h-80zM240 264q0 8 8 8h192q8 0 8 -8t-8 -8h-192q-8 0 -8 8zM440 176q8 0 8 -8t-8 -8h-368q-8 0 -8 8t8 8h368zM440 128
q8 0 8 -8t-8 -8h-368q-8 0 -8 8t8 8h368zM440 80q8 0 8 -8t-8 -8h-368q-8 0 -8 8t8 8h368zM440 224q8 0 8 -8t-8 -8h-368q-8 0 -8 8t8 8h368zM80 256h112q7 0 11.5 4.5t4.5 11.5v96q0 7 -4.5 11.5t-11.5 4.5h-112q-7 0 -11.5 -4.5t-4.5 -11.5v-96q0 -7 4.5 -11.5t11.5 -4.5z
M96 352h80v-64h-80v64z" />
  </g>

</svg>
