<?xml version="1.0" standalone="no"?>
<!DOCTYPE svg PUBLIC "-//W3C//DTD SVG 1.1//EN" "http://www.w3.org/Graphics/SVG/1.1/DTD/svg11.dtd" >
<svg viewBox="0 -32 512 512">
  <g transform="matrix(1 0 0 -1 0 480)">
   <path fill="currentColor"
d="M240 320q0 7 4.5 11.5t11.5 4.5t11.5 -4.5t4.5 -11.5t-4.5 -11.5t-11.5 -4.5t-11.5 4.5t-4.5 11.5zM240 128q0 7 4.5 11.5t11.5 4.5t11.5 -4.5t4.5 -11.5t-4.5 -11.5t-11.5 -4.5t-11.5 4.5t-4.5 11.5zM144 224q0 7 4.5 11.5t11.5 4.5t11.5 -4.5t4.5 -11.5t-4.5 -11.5
t-11.5 -4.5t-11.5 4.5t-4.5 11.5zM336 224q0 7 4.5 11.5t11.5 4.5t11.5 -4.5t4.5 -11.5t-4.5 -11.5t-11.5 -4.5t-11.5 4.5t-4.5 11.5zM172 156.5q0 6.5 4.5 11t11.5 4.5t11.5 -4.5t4.5 -11t-4.5 -11.5t-11.5 -5t-11.5 5t-4.5 11.5zM172 292q0 7 4.5 11.5t11.5 4.5t11.5 -4.5
t4.5 -11.5t-4.5 -11.5t-11.5 -4.5t-11.5 4.5t-4.5 11.5zM308 156.5q0 6.5 4.5 11t11 4.5t11.5 -4.5t5 -11.5v0q0 -6 -5 -11t-11.5 -5t-11 5t-4.5 11.5zM416 256q-1 0 -2 -0.5l-1 -0.5q-8 41 -37 74l-23 125q-2 11 -11 18.5t-20 7.5h-128q-12 0 -21 -7.5t-11 -18.5l-22 -121
q-44 -47 -44 -109q0 -61 42 -107l23 -123q2 -11 10.5 -18.5t20.5 -7.5h128q12 0 20.5 7.5t10.5 18.5l23 123q30 33 39 76l1 -0.5t2 -0.5q13 0 22.5 9.5t9.5 22.5t-9.5 22.5t-22.5 9.5zM194 448h128l16 -86q-38 22 -80 22t-80 -22zM320 0h-128l-16 86q38 -22 80 -22t80 22z
M256 96q-53 0 -90.5 37.5t-37.5 90.5t37.5 90.5t90.5 37.5t90.5 -37.5t37.5 -90.5t-37.5 -90.5t-90.5 -37.5zM335 303.5q3 -3.5 1 -7.5l-39 -48l-30 -36q-4 -4 -11 -4t-11.5 4.5t-4.5 11.5t5 11l83 69q4 3 7 -0.5z" />
  </g>

</svg>
