<?xml version="1.0" standalone="no"?>
<!DOCTYPE svg PUBLIC "-//W3C//DTD SVG 1.1//EN" "http://www.w3.org/Graphics/SVG/1.1/DTD/svg11.dtd" >
<svg viewBox="-1 -32 513 512">
  <g transform="matrix(1 0 0 -1 0 480)">
   <path fill="currentColor"
d="M503 311l-160 160q-13 12 -31 8q-8 -2 -15 -8q-5 -6 -8 -14q-10 -34 -38 -62q-25 -25 -91 -63q-74 -43 -104 -74q-39 -39 -55 -89q-5 -18 8 -32l160 -160q13 -12 31 -8q8 2 15 8q5 6 8 14q10 35 38 62q25 25 91 63q74 43 104 74q39 38 55 89q5 18 -8 32zM192 0
l-50.5 50.5l-59 59l-50.5 50.5q13 40 43 71.5t65.5 52l71 41t66 52t42.5 71.5l79.5 -79.5l80.5 -80.5q-12 -40 -42.5 -71.5t-66 -52l-71 -41t-65.5 -52t-43 -71.5zM313 242q-8 6 -16 8.5t-16 1.5t-16 -4q-9 -3 -16 -7q-16 19 -26 29q6 5 11.5 5.5t10.5 -1.5q6 -1 9 -2
q5 -1 8 2q4 3 4 8t-4 9q-5 6 -12.5 7.5t-15 -0.5t-14 -6t-10.5 -8q-2 1 -4 3q-1 2 -3.5 2t-4.5 -2.5t-2 -5t2 -3.5q3 -2 3 -3q-6 -7 -10 -16q-4 -8 -5 -17q-1 -8 2 -15t10 -13q11 -9 26 -8q17 1 33 10q18 -21 29 -32q-6 -5 -10.5 -6t-8.5 0t-7 3.5t-6.5 4t-6.5 1.5t-7 -3.5
t-4 -8t4 -9t10.5 -7.5t14.5 -4q9 0 17 3q9 3 18 12q3 -4 8 -8q2 -2 4.5 -1.5t4.5 2.5t1.5 4.5t-2.5 3.5q-4 4 -8 7q7 9 11 19q5 9 5 17q1 8 -1 15q-3 7 -10 13zM223.5 230.5q-6.5 -0.5 -11.5 4.5q-3 2 -4 5.5t-0.5 7t2.5 7t5 7.5q10 -10 25 -26q-10 -5 -16.5 -5.5zM299 199
q-2 -4 -5 -7q-11 11 -27 29q5 2 7 3q4 2 8 2.5t8 -0.5t7.5 -4.5t4.5 -7t0 -7.5t-3 -8zM235 125q6 5 11 0q6 -6 0 -12h-1q-16 -13 -27 -24q-12 -12 -22 -25l-10 -14q-1 -1 -1 -2q-6 -6 -12 0q-4 5 -1 10l11 15q11 14 24 27q11 12 28 25zM294 357q12 12 22 25l10 14q1 2 2 2
q6 6 11 0q5 -5 1 -11l-11 -15q-11 -14 -24 -27q-11 -12 -28 -25q-6 -5 -12 1q-5 5 0 11q1 1 2 1q16 13 27 24z" />
  </g>

</svg>
