<?xml version="1.0" standalone="no"?>
<!DOCTYPE svg PUBLIC "-//W3C//DTD SVG 1.1//EN" "http://www.w3.org/Graphics/SVG/1.1/DTD/svg11.dtd" >
<svg viewBox="0 -32 512 512">
  <g transform="matrix(1 0 0 -1 0 480)">
   <path fill="currentColor"
d="M256 480q-90 0 -157 -27t-67 -77v-304q0 -50 67 -77t157 -27t157 27t67 77v304q0 50 -67 77t-157 27zM448 72q0 -30 -56 -51t-136 -21t-136 21t-56 51v60q24 -25 77 -38.5t115 -13.5t115 13.5t77 38.5v-60zM448 168v0q0 -30 -56 -51t-136 -21t-136 21t-56 51v0v60
q24 -25 77 -38.5t115 -13.5t115 13.5t77 38.5v-60zM448 264v0q0 -30 -56 -51t-136 -21t-136 21t-56 51v0v55q30 -23 82 -35t110 -12t110 12t82 35v-55zM256 304q-80 0 -136 21t-56 51t56 51t136 21t136 -21t56 -51t-56 -51t-136 -21zM384 64q0 7 4.5 11.5t11.5 4.5
t11.5 -4.5t4.5 -11.5t-4.5 -11.5t-11.5 -4.5t-11.5 4.5t-4.5 11.5zM384 160q0 7 4.5 11.5t11.5 4.5t11.5 -4.5t4.5 -11.5t-4.5 -11.5t-11.5 -4.5t-11.5 4.5t-4.5 11.5zM384 256q0 7 4.5 11.5t11.5 4.5t11.5 -4.5t4.5 -11.5t-4.5 -11.5t-11.5 -4.5t-11.5 4.5t-4.5 11.5z" />
  </g>

</svg>
