<?xml version="1.0" standalone="no"?>
<!DOCTYPE svg PUBLIC "-//W3C//DTD SVG 1.1//EN" "http://www.w3.org/Graphics/SVG/1.1/DTD/svg11.dtd" >
<svg viewBox="0 -32 512 512">
  <g transform="matrix(1 0 0 -1 0 480)">
   <path fill="currentColor"
d="M501 472q-9 8 -21 8h-6l-272 -48q-11 -3 -18.5 -11.5t-7.5 -20.5v-32v-16v-227q-26 19 -61 19q-20 0 -40 -7q-48 -16 -67 -55q-14 -31 -3 -60q9 -25 33 -39.5t55 -14.5q20 0 40 7q48 16 67 55q8 16 8 34v256h6l266 47v-194q-26 19 -61 19q-20 0 -40 -7q-48 -16 -67 -55
q-14 -31 -3 -60q9 -25 33 -39.5t55 -14.5q20 0 40 7q48 16 67 55q8 16 8 34v288v16v32q0 15 -11 24zM123 5q-29 -10 -55 -1.5t-33.5 29.5t7 42.5t43.5 31.5t54.5 1.5t33.5 -29.5t-6.5 -42.5t-43.5 -31.5zM426.5 53q-28.5 -10 -54.5 -1.5t-34 29.5t7 42.5t43.5 31.5t54.5 1.5
t34 -29.5t-7 -42.5t-43.5 -31.5zM479 400l-272 -48v16v32l272 48v-32v-16z" />
  </g>

</svg>
