<?xml version="1.0" standalone="no"?>
<!DOCTYPE svg PUBLIC "-//W3C//DTD SVG 1.1//EN" "http://www.w3.org/Graphics/SVG/1.1/DTD/svg11.dtd" >
<svg viewBox="0 -32 512 512">
  <g transform="matrix(1 0 0 -1 0 480)">
   <path fill="currentColor"
d="M400 480q-47 0 -77 -57h-1q-20 -41 -49 -64t-61 -23h-11h-71h-66q-27 0 -45.5 -23t-18.5 -57t18.5 -57t45.5 -23q13 0 22.5 -9.5t9.5 -22.5v-144q0 -13 9.5 -22.5t22.5 -9.5h64q13 0 22.5 9.5t9.5 22.5v16q0 9 -8 18.5t-8 13.5v112v1q0 3 2 6q0 1 1 2q2 3 5 4v1q1 0 4 1
q62 -7 102 -86h1q30 -57 77 -57q52 0 82 67t30 157t-30 157t-82 67zM320 256q0 24 3 48h45q13 0 22.5 -14t9.5 -34t-9.5 -34t-22.5 -14h-45q-3 24 -3 48zM32 256q0 20 9.5 34t22.5 14h66h14h32q-16 -19 -16 -48t16 -48h-32h-80q-13 0 -22.5 14t-9.5 34zM192 0h-64v144
q0 17 -9 32h11h49q-3 -8 -3 -16v-112q0 -15 14 -32l1 -1l1 -1v-14zM212 208h-4q-13 0 -22.5 14t-9.5 34t9.5 34t22.5 14h4q44 0 83 32q-7 -39 -7 -80q0 -42 7 -80q-39 32 -83 32zM400 64q-24 0 -43.5 31t-29.5 81h41q27 0 45.5 23t18.5 57t-18.5 57t-45.5 23h-41
q10 50 29.5 81t43.5 31q33 0 56.5 -56t23.5 -136t-23.5 -136t-56.5 -56z" />
  </g>

</svg>
