<?xml version="1.0" standalone="no"?>
<!DOCTYPE svg PUBLIC "-//W3C//DTD SVG 1.1//EN" "http://www.w3.org/Graphics/SVG/1.1/DTD/svg11.dtd" >
<svg viewBox="0 -32 512 512">
  <g transform="matrix(1 0 0 -1 0 480)">
   <path fill="currentColor"
d="M512 352q0 17 -10.5 30t-26.5 17l-208 48q-6 1 -11 1t-11 -1l-208 -48q-16 -4 -26.5 -17t-10.5 -30t10.5 -30t26.5 -17l43 -10v-135q0 -35 43 -57.5t133 -22.5t133 22.5t43 57.5v135l43 10q16 4 26.5 17t10.5 30zM400 160q0 -10 -15 -20.5t-49.5 -19t-79.5 -8.5
t-79.5 8.5t-49.5 19t-15 20.5v128l133 -31q6 -1 11 -1t11 1l133 31v-128zM260 288h-4h-4l-208 48q-12 3 -12 16t12 16l208 48h4h4l208 -48q12 -3 12 -16t-12 -16zM464 272q0 7 4.5 11.5t11.5 4.5t11.5 -4.5t4.5 -11.5v-144q0 -7 -4.5 -11.5t-11.5 -4.5t-11.5 4.5t-4.5 11.5
v144zM480 96q12 0 22 -24t10 -40q0 -13 -9.5 -22.5t-22.5 -9.5t-22.5 9.5t-9.5 22.5q0 16 10 40t22 24z" />
  </g>

</svg>
