<?xml version="1.0" standalone="no"?>
<!DOCTYPE svg PUBLIC "-//W3C//DTD SVG 1.1//EN" "http://www.w3.org/Graphics/SVG/1.1/DTD/svg11.dtd" >
<svg viewBox="-1 -32 512 512">
  <g transform="matrix(1 0 0 -1 0 480)">
   <path fill="currentColor"
d="M331 420q-12 12 -28.5 12t-28.5 -12l-22 -22q-12 -12 -12 -29q0 -11 6 -21l-217 -87q-23 -10 -28 -35t13 -43l204 -201q13 -14 32 -14h2q5 0 9 1q26 5 35 29l86 214q10 -6 22 -6q16 0 28 11l22 23q12 12 12 28.5t-12 28.5zM267 10q-4 -8 -12 -10h-4q-6 0 -11 5l-203 201
q-6 6 -4.5 14.5t9.5 11.5l99 40q21 -7 63 -11.5t75 -17t63 -43.5zM432 263l-23 -23q-5 -6 -11 0l-28 28l-23 -57l2 5q-23 22 -50 35.5t-44.5 17t-47.5 6.5q-26 4 -41 7l136 54l-28 28q-5 5 0 11l23 23q6 5 11 0l124 -124q6 -6 0 -11zM264 144q17 0 28.5 11.5t11.5 28.5
t-11.5 28.5t-28.5 11.5t-28.5 -11.5t-11.5 -28.5t11.5 -28.5t28.5 -11.5zM264 208q10 0 17 -7t7 -17t-7 -17t-17 -7t-17 7t-7 17t7 17t17 7zM472 480q-17 0 -28.5 -11.5t-11.5 -28.5t11.5 -28.5t28.5 -11.5t28.5 11.5t11.5 28.5t-11.5 28.5t-28.5 11.5zM472 416q-10 0 -17 7
t-7 17t7 17t17 7t17 -7t7 -17t-7 -17t-17 -7zM128 208q0 -13 9.5 -22.5t22.5 -9.5t22.5 9.5t9.5 22.5t-9.5 22.5t-22.5 9.5t-22.5 -9.5t-9.5 -22.5zM160 224q7 0 11.5 -4.5t4.5 -11.5t-4.5 -11.5t-11.5 -4.5t-11.5 4.5t-4.5 11.5t4.5 11.5t11.5 4.5zM192 112q0 7 4.5 11.5
t11.5 4.5t11.5 -4.5t4.5 -11.5t-4.5 -11.5t-11.5 -4.5t-11.5 4.5t-4.5 11.5zM448 352q0 7 4.5 11.5t11.5 4.5t11.5 -4.5t4.5 -11.5t-4.5 -11.5t-11.5 -4.5t-11.5 4.5t-4.5 11.5z" />
  </g>

</svg>
