<?xml version="1.0" standalone="no"?>
<!DOCTYPE svg PUBLIC "-//W3C//DTD SVG 1.1//EN" "http://www.w3.org/Graphics/SVG/1.1/DTD/svg11.dtd" >
<svg viewBox="0 -32 512 512">
  <g transform="matrix(1 0 0 -1 0 480)">
   <path fill="currentColor"
d="M472 144h-43q-1 5 -3 11l77 39q6 3 8 9t-1 12t-9 8t-12 -1l-73 -36q-22 46 -65 74t-95 28q-64 0 -113 -41t-60 -103h-43q-17 0 -28.5 -11.5t-11.5 -28.5q0 -12 8 -21l56 -63v-12q0 -17 11.5 -28.5t28.5 -11.5h304q17 0 28.5 11.5t11.5 28.5v12l56 63q8 9 8 21
q0 17 -11.5 28.5t-28.5 11.5zM413 144h-9l8 4q0 -1 0.5 -2t0.5 -2zM256 272q48 0 87 -25.5t58 -67.5l-14 -8q-17 38 -52.5 61.5t-78.5 23.5q-51 0 -90 -31.5t-50 -80.5h-17q11 55 55.5 91.5t101.5 36.5zM329 144q-9 22 -29 35t-44 13t-44 -13t-29 -35h-17q10 28 34.5 46
t55.5 18q29 0 53 -16t35 -42l-12 -6h-3zM256 160q-21 0 -36 -16h-19q19 32 55 32t55 -32h-20q-14 16 -35 16zM256 224q-38 0 -67.5 -22.5t-39.5 -57.5h-17q11 42 45.5 69t78.5 27q38 0 69.5 -21t47.5 -55l-15 -7q-13 30 -40.5 48.5t-61.5 18.5zM416 32v-24q0 -8 -8 -8h-304
q-8 0 -8 8v24l-64 72q0 8 8 8h40h16h16h16h16h16h16h16h16h96h16h16h16h16h16h16h16h16h40q8 0 8 -8zM128 293h-1q-8 20 8 58q13 31 7 46h-1v3q0 8 8 8q5 0 7 -5q9 -21 -7 -58q-13 -32 -6 -47v-2q0 -8 -8 -8q-5 0 -7 4v1zM322 295v1q-8 20 8 57q13 32 6 46v1v0v2q0 8 8 8
q5 0 7 -5q9 -20 -7 -58q-13 -31 -7 -46v-1q1 -1 1 -2q0 -8 -8 -8q-5 0 -7 5h-1zM240 365v0q-8 20 7 58q14 31 7 46v0v3q0 8 7 8q6 0 8 -5q9 -21 -7 -58q-13 -32 -7 -47q1 -1 1 -2q0 -8 -8 -8q-5 0 -8 4v1z" />
  </g>

</svg>
