<?xml version="1.0" standalone="no"?>
<!DOCTYPE svg PUBLIC "-//W3C//DTD SVG 1.1//EN" "http://www.w3.org/Graphics/SVG/1.1/DTD/svg11.dtd" >
<svg viewBox="0 -32 512 512">
  <g transform="matrix(1 0 0 -1 0 480)">
   <path fill="currentColor"
d="M352 336q0 -19 -8.5 -38.5t-16.5 -30.5l-8 -10q0 35 -16 71t-31 54l-16 18q-1 -47 -33 -95q-9 31 -25 60.5t-33 49.5t-33 35.5t-26 22.5l-10 7q16 -60 17 -113.5t-7 -87t-17 -80t-9 -85.5q0 -59 45 -102.5t115 -43.5q52 0 87 8.5t54.5 26t28.5 34.5t16 43q15 60 -5 127.5
t-69 128.5zM395 88q-4 -17 -7.5 -25.5t-13.5 -22.5t-25 -21.5t-43 -13t-66 -5.5q-57 0 -92.5 34.5t-35.5 79.5q0 42 16 115q21 95 17 159q22 -30 38.5 -70.5t22.5 -62.5t6 -26q46 65 58 95q7 -15 12.5 -58t5.5 -90q43 35 74 88q53 -95 33 -176zM359 211l3 -16
q11 -61 -10 -112q-2 -5 -7 -5q-2 0 -3 1q-7 3 -4 10q14 37 10 86q-30 -34 -79 -58l-8 -3l-3 8q-12 34 -14 57q-16 -23 -30 -43l-8 -11l-6 12q-22 50 -33 76q-13 -43 -13 -111q0 -8 -8 -8t-8 8q0 75 21 135l8 24l8 -21q10 -29 34 -84q10 15 25 38l24 38v-27q0 -34 12 -69
q20 10 35 21t22 18.5t18 20.5z" />
  </g>

</svg>
