<?xml version="1.0" standalone="no"?>
<!DOCTYPE svg PUBLIC "-//W3C//DTD SVG 1.1//EN" "http://www.w3.org/Graphics/SVG/1.1/DTD/svg11.dtd" >
<svg viewBox="0 -32 512 512">
  <g transform="matrix(1 0 0 -1 0 480)">
   <path fill="currentColor"
d="M470 406q42 -42 42 -102t-42 -102l-176 -175q-11 -12 -22.5 -0.5t0.5 22.5l173 174q33 32 33 78.5t-33 79.5t-79.5 33t-78.5 -33l-232 -229q-23 -23 -23 -56t23.5 -56.5t56.5 -23.5t56 23l234 231q14 14 14 34t-14 34t-34 14t-34 -14l-175 -176q-12 -11 -23 0.5t0 22.5
l175 176q24 23 57 23t56.5 -23.5t23.5 -56.5t-23 -57l-234 -230q-33 -33 -79.5 -33t-79 32.5t-32.5 79t33 79.5l233 231q42 42 102 42t102 -42z" />
  </g>

</svg>
