<?xml version="1.0" standalone="no"?>
<!DOCTYPE svg PUBLIC "-//W3C//DTD SVG 1.1//EN" "http://www.w3.org/Graphics/SVG/1.1/DTD/svg11.dtd" >
<svg viewBox="0 -32 512 512">
  <g transform="matrix(1 0 0 -1 0 480)">
   <path fill="currentColor"
d="M502 301l-48 64q-2 3 -6 7v76q0 13 -9.5 22.5t-22.5 9.5h-320q-13 0 -22.5 -9.5t-9.5 -22.5v-76q-4 -4 -6 -7l-48 -64q-10 -13 -10 -29v-16q0 -20 14 -34t34 -14v-208q0 -13 9.5 -22.5t22.5 -9.5h352q13 0 22.5 9.5t9.5 22.5v208q20 0 34 14t14 34v16q0 16 -10 29z
M416 448v-64h-320v64h320zM163 240h-67l64 112h35zM212 352h36v-112h-68zM264 352h36l32 -112h-68v112zM317 352h35l64 -112h-67zM32 256v16q0 5 3 10l48 64q5 6 13 6h46l-64 -112h-30q-7 0 -11.5 4.5t-4.5 11.5zM320 0h-120v160h120v-160zM432 0h-96v160q0 7 -4.5 11.5
t-11.5 4.5h-120q-7 0 -11.5 -4.5t-4.5 -11.5v-160h-104v208h352v-208zM480 256q0 -7 -4.5 -11.5t-11.5 -4.5h-30l-64 112h46q8 0 13 -6l48 -64q3 -5 3 -10v-16z" />
  </g>

</svg>
