<?xml version="1.0" standalone="no"?>
<!DOCTYPE svg PUBLIC "-//W3C//DTD SVG 1.1//EN" "http://www.w3.org/Graphics/SVG/1.1/DTD/svg11.dtd" >
<svg viewBox="0 -32 512 512">
  <g transform="matrix(1 0 0 -1 0 480)">
   <path fill="currentColor"
d="M469 432h-69v32q0 7 -4.5 11.5t-11.5 4.5t-11.5 -4.5t-4.5 -11.5v-32h-96v32q0 7 -4.5 11.5t-11.5 4.5t-11.5 -4.5t-4.5 -11.5v-32h-96v32q0 7 -4.5 11.5t-11.5 4.5t-11.5 -4.5t-4.5 -11.5v-32h-69q-18 0 -30.5 -12.5t-12.5 -30.5v-378q0 -18 12.5 -30.5t30.5 -12.5h426
q18 0 30.5 12.5t12.5 30.5v378q0 18 -12.5 30.5t-30.5 12.5zM480 11q0 -5 -3 -8t-8 -3h-426q-5 0 -8 3t-3 8v378q0 5 3 8t8 3h69v-32q0 -7 4.5 -11.5t11.5 -4.5t11.5 4.5t4.5 11.5v32h96v-32q0 -7 4.5 -11.5t11.5 -4.5t11.5 4.5t4.5 11.5v32h96v-32q0 -7 4.5 -11.5
t11.5 -4.5t11.5 4.5t4.5 11.5v32h69q5 0 8 -3t3 -8v-378zM112 288h64v-48h-64v48zM112 208h64v-48h-64v48zM112 128h64v-48h-64v48zM224 128h64v-48h-64v48zM224 208h64v-48h-64v48zM224 288h64v-48h-64v48zM336 128h64v-48h-64v48zM336 208h64v-48h-64v48zM336 288h64v-48
h-64v48z" />
  </g>

</svg>
