<?xml version="1.0" standalone="no"?>
<!DOCTYPE svg PUBLIC "-//W3C//DTD SVG 1.1//EN" "http://www.w3.org/Graphics/SVG/1.1/DTD/svg11.dtd" >
<svg viewBox="0 -32 512 512">
  <g transform="matrix(1 0 0 -1 0 480)">
   <path fill="currentColor"
d="M256 160q0 13 9.5 22.5t22.5 9.5t22.5 -9.5t9.5 -22.5t-9.5 -22.5t-22.5 -9.5t-22.5 9.5t-9.5 22.5zM464 272v96v8v40q0 20 -14 34t-34 14h-64h-264q-36 0 -62 -26t-26 -62v-320q0 -36 26 -62t62 -26h288q36 0 62 26t26 62v24q48 36 48 96t-48 96zM88 432h264h64
q7 0 11.5 -4.5t4.5 -11.5v-40v-8v-51q-8 3 -16 3v16v32v32q0 7 -4.5 11.5t-11.5 4.5h-336q-7 0 -11.5 -4.5t-4.5 -11.5v-32v-31q-16 16 -16 39t16.5 39.5t39.5 16.5zM400 384h-336v16h336v-16zM400 368v-16h-336v16h336zM400 336v-16h-48h-264q-12 0 -24 6v10h336zM432 56
q0 -23 -16.5 -39.5t-39.5 -16.5h-288q-23 0 -39.5 16.5t-16.5 39.5v252q24 -20 56 -20h264h64q7 0 11.5 -4.5t4.5 -11.5v-32h-144q-33 0 -56.5 -23.5t-23.5 -56.5t23.5 -56.5t56.5 -23.5h144v-24zM452 112h-164q-20 0 -34 14t-14 34t14 34t34 14h144q16 0 26 13q2 3 4 7v1
q18 -23 18 -53q0 -38 -28 -64z" />
  </g>

</svg>
