<?xml version="1.0" standalone="no"?>
<!DOCTYPE svg PUBLIC "-//W3C//DTD SVG 1.1//EN" "http://www.w3.org/Graphics/SVG/1.1/DTD/svg11.dtd" >
<svg viewBox="0 -32 512 512">
  <g transform="matrix(1 0 0 -1 0 480)">
   <path fill="currentColor"
d="M351 462q-68 24 -132.5 15t-119.5 -51t-81 -107q-24 -68 -15 -133t51 -119.5t107 -80.5q68 -24 133 -15.5t119.5 51t80.5 107.5q24 68 15.5 132.5t-51 119.5t-107.5 81zM173 16q-86 34 -122.5 119.5t-2 171.5t119.5 122.5t171 2t122.5 -119.5t2.5 -171t-119.5 -122.5
t-171.5 -2.5zM268 254q-12 5 -24.5 -0.5t-17.5 -17.5t0.5 -24.5t17.5 -17.5t24.5 0.5t17.5 17.5t-0.5 24.5t-17.5 17.5zM250 209.5q-6 2.5 -8.5 8.5t0 12t8.5 8.5t12 0t8.5 -8.5t0 -12t-8.5 -8.5t-12 0zM292 313q-37 15 -73.5 -0.5t-51.5 -52.5t0.5 -73.5t52.5 -51.5
t73.5 0.5t51.5 52.5t-0.5 73.5t-52.5 51.5zM232.5 164.5q-24.5 9.5 -35 34t-1 49t34 35t49 1t35 -34t1 -49t-34 -35t-49 -1zM375 176q-20 -49 -68 -70h-1q-7 -3 -10 4.5t4 10.5q43 18 60 61q3 8 10.5 5t4.5 -11zM429.5 163q7.5 -3 4.5 -10q-29 -74 -102 -105v-1
q-8 -3 -11 4.5t4 10.5q67 29 94 97q3 7 10.5 4zM400.5 175q7.5 -3 4.5 -11q-25 -61 -86 -87q-7 -3 -10.5 4t4.5 11q55 23 77 78q3 8 10.5 5zM216 337.5q3 -7.5 -4 -10.5q-43 -18 -60 -61q-3 -8 -10.5 -5t-4.5 11q20 48 68 69l1 1q7 3 10 -4.5zM191 396.5q3 -7.5 -4 -10.5
q-67 -29 -94 -97q-3 -7 -10.5 -4t-4.5 10q29 74 102 105v0q8 4 11 -3.5zM199 356q-54 -23 -77 -79q-3 -7 -10 -4t-4 10q24 62 85 88q7 3 10.5 -4.5t-4.5 -10.5z" />
  </g>

</svg>
