<?xml version="1.0" standalone="no"?>
<!DOCTYPE svg PUBLIC "-//W3C//DTD SVG 1.1//EN" "http://www.w3.org/Graphics/SVG/1.1/DTD/svg11.dtd" >
<svg viewBox="0 -32 512 512">
  <g transform="matrix(1 0 0 -1 0 480)">
   <path fill="currentColor"
d="M397 297q-4 7 -13 7h-16q-7 0 -11.5 -4.5t-4.5 -11.5v-96q0 -7 4.5 -11.5t11.5 -4.5h64q7 0 11.5 4.5t4.5 11.5v24q0 5 -3 9zM432 192h-64v96h16l48 -72v-24zM504 235l-64 96q-14 21 -40 21h-64v32q0 20 -14 34t-34 14h-240q-20 0 -34 -14t-14 -34v-176q0 -20 14 -34
t34 -14v-48q0 -20 14 -34t34 -14h18q6 -21 23 -34.5t39 -13.5t39 13.5t23 34.5h84q6 -21 23 -34.5t39 -13.5t39 13.5t23 34.5h18q20 0 34 14t14 34v96q0 15 -8 27zM48 192q-7 0 -11.5 4.5t-4.5 11.5v176q0 7 4.5 11.5t11.5 4.5h240q7 0 11.5 -4.5t4.5 -11.5v-32v-32v-112
q0 -7 -4.5 -11.5t-11.5 -4.5h-240zM176 48q-13 0 -22.5 9.5t-9.5 22.5t9.5 22.5t22.5 9.5t22.5 -9.5t9.5 -22.5t-9.5 -22.5t-22.5 -9.5zM384 48q-13 0 -22.5 9.5t-9.5 22.5t9.5 22.5t22.5 9.5t22.5 -9.5t9.5 -22.5t-9.5 -22.5t-22.5 -9.5zM480 112q0 -7 -4.5 -11.5
t-11.5 -4.5h-18q-6 21 -23 34.5t-39 13.5t-39 -13.5t-23 -34.5h-84q-6 21 -23 34.5t-39 13.5t-39 -13.5t-23 -34.5h-18q-7 0 -11.5 4.5t-4.5 11.5v48h208q20 0 34 14t14 34v112h64q9 0 13 -7l64 -96q3 -4 3 -9v-96z" />
  </g>

</svg>
