<?xml version="1.0" standalone="no"?>
<!DOCTYPE svg PUBLIC "-//W3C//DTD SVG 1.1//EN" "http://www.w3.org/Graphics/SVG/1.1/DTD/svg11.dtd" >
<svg viewBox="0 -32 512 512">
  <g transform="matrix(1 0 0 -1 0 480)">
   <path fill="currentColor"
d="M248 480q-103 0 -175.5 -72.5t-72.5 -175.5t72.5 -175.5t175.5 -72.5t175.5 72.5t72.5 175.5t-72.5 175.5t-175.5 72.5zM464 240h-96q-2 53 -19 100q32 13 60 35q52 -58 55 -135zM239 16q-40 34 -65 85q31 9 66 11v-96h-1zM257 448q46 -39 71 -98q-35 -12 -72 -14v112h1z
M283 445q67 -11 115 -58q-26 -20 -55 -32q-22 52 -60 90zM240 448v-112q-37 2 -72 14q25 59 71 98h1zM153 355q-29 12 -55 32q48 47 115 58q-38 -38 -60 -90zM162 335q38 -13 78 -15v-80h-96q2 50 18 95zM240 224v-96q-38 -2 -73 -13q-21 52 -23 109h96zM213 19
q-60 10 -105 49q24 17 51 27q21 -43 54 -76zM256 16v96q35 -2 66 -11q-25 -51 -65 -85h-1zM337 95q27 -10 51 -27q-45 -39 -105 -49q33 33 54 76zM329 115q-35 11 -73 13v96h96q-2 -57 -23 -109zM256 240v80q40 2 78 15q16 -45 18 -95h-96zM87 375q28 -22 60 -35
q-17 -47 -19 -100h-96q3 77 55 135zM32 224h96q2 -60 24 -114q-29 -12 -56 -31q-60 60 -64 145zM400 79q-27 19 -56 31q22 54 24 114h96q-4 -85 -64 -145z" />
  </g>

</svg>
